<?xml version="1.0" standalone="no"?>
<!DOCTYPE svg PUBLIC "-//W3C//DTD SVG 1.1//EN" "http://www.w3.org/Graphics/SVG/1.1/DTD/svg11.dtd" >
<svg xmlns="http://www.w3.org/2000/svg">
<metadata></metadata>
<defs>
<font id="libre_baskervillebold" horiz-adv-x="1656" >
<font-face units-per-em="2048" ascent="1638" descent="-410" />
<missing-glyph horiz-adv-x="544" />
<glyph unicode="&#xfb01;" horiz-adv-x="1417" d="M37 936v117h203v147q0 237 148.5 368.5t414.5 131.5q161 0 262.5 -53t101.5 -138q0 -44 -28 -72t-72 -28q-70 0 -141 68q-60 58 -105 81t-98 23q-112 0 -158 -104q-41 -86 -41 -265v-159h260l420 53v-768q0 -70 4 -110.5t13.5 -71t31 -44.5t50.5 -21t79 -9v-82h-604v82 q89 4 115.5 49t26.5 191v231q0 222 -15 299q-11 50 -50.5 67t-143.5 17h-187v-600q0 -152 32 -203.5t126 -54.5v-78h-586v78q40 3 63 9t41 19.5t25.5 42t11 67t3.5 103.5v617h-203z" />
<glyph unicode="&#xfb02;" horiz-adv-x="1447" d="M37 936v117h211v147q0 235 137.5 367.5t380.5 132.5q84 0 166 -15t125 -38l170 53v-1370q0 -156 31.5 -200t146.5 -48v-82h-604v82q89 4 115 47t26 186v1155q-51 52 -109.5 81.5t-111.5 29.5q-109 0 -156 -125q-33 -88 -33 -244v-159h236v-117h-236v-596 q0 -152 35 -203.5t138 -54.5v-82h-609v82q53 3 80.5 11.5t45 36.5t22 70t4.5 124v612h-211z" />
<glyph unicode="&#xfb03;" horiz-adv-x="2138" d="M39 936v117h219v65q0 230 141 365t381 135q76 0 131 -15.5t109 -52.5q75 67 207 108.5t272 41.5q177 0 283 -49.5t106 -132.5q0 -53 -29 -81t-73 -28q-40 0 -74 18t-80 64q-90 90 -202 90q-95 0 -147 -84t-52 -285v-159h319l375 53v-770q0 -58 2 -93.5t9.5 -66t18 -46 t32 -27t48 -15.5t68.5 -6v-82h-604v82q90 6 115.5 51t25.5 189v229q0 236 -14 301q-10 51 -46 67.5t-130 16.5h-219v-596q0 -154 34 -204.5t138 -53.5v-82h-602v82q95 4 120 46.5t25 195.5v612h-403v-596q0 -152 30.5 -203.5t122.5 -54.5v-82h-620v82q43 2 70 6t49 15t33 25 t18.5 43t9.5 63t2 90v612h-219zM543 1053h403v299q-64 85 -116.5 116t-114.5 31q-93 0 -132.5 -92.5t-39.5 -276.5v-77z" />
<glyph unicode="&#xfb04;" horiz-adv-x="2146" d="M39 936v117h219v65q0 230 141 365t381 135q76 0 131 -15.5t109 -52.5q75 67 207 108.5t272 41.5q174 0 277 -47l149 47v-1364q0 -58 2 -93.5t9.5 -66t18 -46t32 -27t48 -15.5t68.5 -6v-82h-604v82q90 6 115.5 51t25.5 189v1163q-96 96 -210 96q-95 0 -147 -84t-52 -285 v-159h270v-117h-270v-596q0 -154 34 -204.5t138 -53.5v-82h-602v82q95 4 120 46.5t25 195.5v612h-403v-596q0 -152 30.5 -203.5t122.5 -54.5v-82h-620v82q43 2 70 6t49 15t33 25t18.5 43t9.5 63t2 90v612h-219zM543 1053h403v299q-64 85 -116.5 116t-114.5 31 q-93 0 -132.5 -92.5t-39.5 -276.5v-77z" />
<glyph horiz-adv-x="0" />
<glyph horiz-adv-x="682" />
<glyph horiz-adv-x="0" />
<glyph horiz-adv-x="0" />
<glyph unicode="&#xd;" horiz-adv-x="716" />
<glyph unicode=" "  horiz-adv-x="544" />
<glyph unicode="&#x09;" horiz-adv-x="544" />
<glyph unicode="&#xa0;" horiz-adv-x="544" />
<glyph unicode="!" horiz-adv-x="636" d="M158 1413q0 184 159 184q160 0 160 -184q0 -59 -5.5 -120t-12 -100.5t-19.5 -112.5t-20 -113q-41 -269 -41 -543h-123q0 274 -41 543q-7 40 -20 113t-19.5 112.5t-12 100.5t-5.5 120zM164 133q0 65 44.5 110.5t110.5 45.5q65 0 110.5 -45.5t45.5 -110.5t-45 -109 t-111 -44t-110.5 43.5t-44.5 109.5z" />
<glyph unicode="&#x22;" horiz-adv-x="802" d="M98 1579q0 52 34 86.5t85 34.5q53 0 87 -34.5t34 -88.5q0 -28 -13.5 -102.5t-34.5 -180.5t-30 -159h-84q-9 52 -30 159t-34.5 182t-13.5 103zM465 1579q0 53 34.5 87t86.5 34q51 0 85 -34.5t34 -88.5q0 -28 -13.5 -103.5t-33.5 -179t-29 -159.5h-84q-9 54 -30.5 159.5 t-35.5 181t-14 103.5z" />
<glyph unicode="#" horiz-adv-x="1437" d="M74 512l22 123h305l48 328h-308l21 122h309l74 492h149l-73 -492h305l71 492h150l-72 -492h289l-23 -122h-288l-47 -328h294l-20 -123h-299l-78 -512h-147l73 512h-305l-80 -512h-149l80 512h-301zM551 635h303l45 328h-301z" />
<glyph unicode="$" horiz-adv-x="1318" d="M76 365q0 70 32 108.5t89 38.5q58 0 93.5 -46.5t65.5 -166.5q46 -178 228 -193v566q-234 94 -343.5 209t-109.5 270q0 100 39 185t102.5 141t144.5 87t167 31v248h139v-252q116 0 222 -47.5t170.5 -127t64.5 -167.5q0 -54 -32.5 -86.5t-86.5 -32.5t-88 35t-53 84.5 t-38.5 99t-59 84.5t-99.5 35v-499q276 -110 398 -231.5t122 -286.5q0 -194 -140.5 -320.5t-379.5 -146.5v-332h-139v330q-218 12 -363 121.5t-145 261.5zM362 1262q0 -135 222 -236v440q-90 0 -156 -60.5t-66 -143.5zM723 111q124 15 192 76t68 157q0 86 -59.5 148 t-200.5 124v-505z" />
<glyph unicode="%" horiz-adv-x="1458" d="M63 0l1188 1577h146l-1170 -1577h-164zM176 1270q0 137 78 232t186 95q109 0 187 -95t78 -232q0 -133 -78 -226.5t-187 -93.5q-108 0 -186 93.5t-78 226.5zM330 1266q0 -136 26.5 -190t83.5 -54q56 0 83.5 54.5t27.5 189.5q0 144 -27 202t-84 58q-56 0 -83 -58t-27 -202z M758 299q0 137 78 232.5t186 95.5t186 -95.5t78 -232.5q0 -133 -78 -226t-186 -93t-186 93t-78 226zM911 295q0 -135 27 -189.5t84 -54.5q56 0 83.5 54.5t27.5 189.5q0 144 -27 202t-84 58t-84 -58t-27 -202z" />
<glyph unicode="&#x26;" horiz-adv-x="1824" d="M41 342q0 138 111.5 256t355.5 238q-131 185 -131 356q0 180 110 292.5t285 112.5q155 0 255.5 -86t100.5 -219q0 -110 -77 -208.5t-250 -213.5l327 -411q101 114 164.5 214.5t63.5 149.5q0 33 -30.5 47.5t-100.5 14.5v82h495v-82q-89 0 -138.5 -29t-98.5 -98l-285 -396 q84 -107 181 -168t186 -61q57 0 89.5 19.5t67.5 76.5l54 -14q-23 -114 -105 -174.5t-213 -60.5q-102 0 -195.5 49.5t-232.5 169.5q-107 -99 -250 -159t-286 -60q-196 0 -324.5 102.5t-128.5 259.5zM362 367q0 -103 66 -170.5t166 -67.5q80 0 172.5 38t175.5 105l-364 453 q-102 -69 -159 -163.5t-57 -194.5zM610 1266q0 -159 119 -297q168 129 168 295q0 86 -42.5 137t-113.5 51q-64 0 -97.5 -47.5t-33.5 -138.5z" />
<glyph unicode="'" horiz-adv-x="436" d="M98 1579q0 52 34 86.5t85 34.5q53 0 87 -34.5t34 -88.5q0 -28 -13.5 -102.5t-34.5 -180.5t-30 -159h-84q-9 52 -30 159t-34.5 182t-13.5 103z" />
<glyph unicode="(" horiz-adv-x="702" d="M72 662q0 277 132.5 540.5t391.5 499.5l66 -57q-171 -250 -242.5 -482t-71.5 -463q0 -284 82 -557t250 -473l-68 -67q-265 236 -402.5 505.5t-137.5 553.5z" />
<glyph unicode=")" horiz-adv-x="702" d="M23 -330q168 200 249.5 472.5t81.5 557.5q0 231 -71 463t-242 482l65 57q259 -236 392 -499.5t133 -540.5q0 -284 -137.5 -553.5t-403.5 -505.5z" />
<glyph unicode="*" horiz-adv-x="1007" d="M106 985q0 65 64 102q22 13 49 16.5t50 3t63 11t84 37.5q-105 51 -180 51q-49 0 -89.5 36.5t-40.5 80.5q0 45 32 76t73 31q36 0 59 -12t39 -33t31.5 -45.5t46 -54.5t72.5 -54q-2 64 -12.5 105t-22 55.5t-20.5 36t-9 51.5q0 53 30 85.5t77 32.5t77.5 -32.5t30.5 -85.5 q0 -30 -16 -60.5t-32.5 -76t-16.5 -111.5q42 24 72.5 54t45.5 54.5t31 45.5t39.5 33t59.5 12q40 0 72 -31.5t32 -75.5t-40.5 -80.5t-88.5 -36.5t-87 -11.5t-93 -39.5q44 -26 84 -37.5t63 -11t50 -3t49 -16.5q63 -38 63 -102q0 -43 -30.5 -73.5t-69.5 -30.5q-42 0 -73.5 24 t-49 55t-51 67t-76.5 54q1 -65 11 -107t21 -56t20 -36t9 -53q0 -52 -29.5 -83t-74.5 -31q-47 0 -78 32t-31 84q0 31 16 61t32.5 75.5t17.5 111.5q-42 -20 -78 -56t-56 -66t-51 -53t-69 -23q-39 0 -70 30.5t-31 73.5z" />
<glyph unicode="+" horiz-adv-x="1146" d="M70 629v127h434v452h139v-452h434v-127h-434v-453h-139v453h-434z" />
<glyph unicode="," horiz-adv-x="536" d="M61 -231q112 74 163.5 133t51.5 114q-28 -16 -61 -16q-43 0 -73.5 38.5t-30.5 92.5q0 67 44 112.5t109 45.5q72 0 115 -51.5t43 -139.5q0 -217 -301 -415z" />
<glyph unicode="-" horiz-adv-x="935" d="M135 498v190h666v-190h-666z" />
<glyph unicode="." horiz-adv-x="532" d="M111 131q0 66 44.5 112t108.5 46q67 0 112.5 -46t45.5 -112q0 -63 -45.5 -107t-112.5 -44q-64 0 -108.5 44t-44.5 107z" />
<glyph unicode="/" horiz-adv-x="976" d="M47 0l760 1577h125l-739 -1577h-146z" />
<glyph unicode="0" horiz-adv-x="1546" d="M96 776q0 170 53.5 323t144 262t214.5 172.5t260 63.5q139 0 264.5 -63.5t217.5 -172.5t146 -262t54 -323q0 -163 -54 -311t-146 -254t-218 -168.5t-264 -62.5q-136 0 -260 62.5t-214.5 168.5t-144 254t-53.5 311zM453 770q0 -191 21 -323t63 -208t98 -108.5t133 -32.5 t133 32.5t98 108.5t63 208t21 323q0 199 -21 338.5t-63 219.5t-98 115.5t-133 35.5t-133 -35.5t-98 -115.5t-63 -219.5t-21 -338.5z" />
<glyph unicode="1" horiz-adv-x="892" d="M61 1430v81q122 5 288 29t269 57v-1261q0 -56 3 -92t12 -66t23.5 -46t41 -28t60 -16t84.5 -6v-82h-770v82q55 2 91.5 7t65.5 16.5t45 27t26 43.5t13.5 61.5t3.5 84.5v743q0 266 -10 299q-11 42 -64.5 54t-181.5 12z" />
<glyph unicode="2" horiz-adv-x="1333" d="M80 0v94q328 281 498.5 463.5t236.5 317.5t66 284t-67.5 235.5t-184.5 86.5q-113 0 -185.5 -73.5t-72.5 -190.5q0 -101 52.5 -161.5t141.5 -60.5q-9 -58 -55.5 -93.5t-112.5 -35.5q-128 0 -212.5 87.5t-84.5 220.5q0 183 160.5 303t403.5 120q241 0 393.5 -123.5 t152.5 -318.5q0 -120 -54 -237.5t-159.5 -231.5t-231.5 -215.5t-300 -218.5l2 -10h418q106 0 160.5 47t99.5 188h90l-82 -477h-1073z" />
<glyph unicode="3" horiz-adv-x="1304" d="M76 344q0 114 80 196.5t190 82.5q68 0 115 -35.5t59 -95.5q-61 0 -102 -50.5t-41 -124.5q0 -100 65 -160.5t172 -60.5q117 0 191 95.5t74 250.5q0 156 -62.5 244t-171.5 88q-85 -37 -143 -37q-57 0 -89 23.5t-32 66.5q0 37 31 57.5t86 20.5q43 0 129 -22q99 0 157 78.5 t58 228.5q0 145 -57.5 222t-159.5 77q-94 0 -146.5 -45t-52.5 -125q0 -56 32 -92.5t81 -36.5q-12 -56 -53.5 -87.5t-104.5 -31.5q-100 0 -171 69.5t-71 166.5q0 131 134 210.5t354 79.5q241 0 384.5 -99t143.5 -265q0 -132 -83 -238.5t-212 -140.5v-12q157 -43 251.5 -157.5 t94.5 -260.5q0 -193 -166.5 -318.5t-423.5 -125.5q-234 0 -387 103t-153 261z" />
<glyph unicode="4" horiz-adv-x="1359" d="M16 426v123l748 1048h194v-1042q103 3 152.5 19.5t69.5 56t20 121.5h76v-498h-76q0 111 -45.5 144t-196.5 36v-63q0 -152 38.5 -218.5t152.5 -70.5v-82h-703v82q71 3 116 21t68.5 55.5t31.5 82.5t8 115v70h-654zM190 555h480v664h-8z" />
<glyph unicode="5" horiz-adv-x="1218" d="M20 262q0 65 32.5 101t90.5 36q36 0 59.5 -17t35.5 -44.5t21 -60.5t22 -65.5t32.5 -60t58 -44.5t93.5 -17q157 0 246.5 140.5t89.5 377.5q0 171 -46.5 249.5t-152.5 78.5q-89 0 -148 -44.5t-94 -139.5q-16 -45 -35.5 -61.5t-48.5 -16.5q-26 0 -41.5 14t-15.5 39q0 9 4 25 l230 845q109 -36 292 -36q235 0 328 38l12 -2q-29 -126 -127 -195t-249 -69h-199l-96 -356l4 -6q34 37 96.5 60.5t128.5 23.5q207 0 346 -141.5t139 -352.5q0 -120 -52 -228t-141 -185t-213 -122.5t-263 -45.5q-192 0 -315.5 79.5t-123.5 202.5z" />
<glyph unicode="6" horiz-adv-x="1380" d="M98 690q0 123 26 240t73 216.5t114 183.5t146 142.5t172.5 91.5t191.5 33q164 0 277.5 -66t113.5 -163q0 -58 -36.5 -92.5t-98.5 -34.5q-34 0 -59 13.5t-40 35t-28 47.5t-28 52t-34 47.5t-52.5 35t-77.5 13.5q-88 0 -160.5 -75t-114 -207t-41.5 -292l7 -4 q65 75 138.5 109.5t170.5 34.5q148 0 269.5 -68t191 -187.5t69.5 -265.5q0 -151 -79 -277.5t-214.5 -199.5t-296.5 -73q-175 0 -312 90t-212.5 251.5t-75.5 368.5zM438 580q0 -240 69 -364t200 -124q129 0 190 105t61 325q0 200 -58.5 304t-170.5 104q-89 0 -157.5 -57 t-133.5 -183v-110z" />
<glyph unicode="7" horiz-adv-x="1056" d="M39 1126l151 574h86q-10 -42 -10 -60q0 -37 35 -50t129 -13h651v-82q-232 -477 -310 -665t-230 -631q-41 -117 -90.5 -168t-120.5 -51q-62 0 -96.5 34t-34.5 95q0 56 38.5 135.5t186.5 322.5q178 294 252.5 426t179.5 340h-389q-90 0 -137.5 -4t-84 -18.5t-53.5 -37.5 t-36 -67l-35 -80h-82z" />
<glyph unicode="8" horiz-adv-x="1300" d="M102 371q0 117 72 218t207 171q-116 78 -179 186.5t-63 231.5q0 186 137 305q132 114 365 114q201 0 342 -86q69 -49 106 -121t37 -155q0 -93 -47 -167.5t-153 -149.5q134 -85 208 -208t74 -259q0 -206 -159 -338.5t-406 -132.5q-151 0 -275 51t-195 140.5t-71 199.5z M358 397q0 -138 78.5 -220.5t210.5 -82.5q138 0 227 77t89 196q0 84 -63.5 150.5t-199.5 125.5l-168 74q-85 -57 -129.5 -139.5t-44.5 -180.5zM375 1262q0 -71 66.5 -134t193.5 -112l139 -55q123 101 123 243q0 120 -76 200.5t-190 80.5q-109 0 -182.5 -64t-73.5 -159z" />
<glyph unicode="9" horiz-adv-x="1380" d="M92 1047q0 151 79 277.5t214.5 199.5t296.5 73q175 0 312 -90t212.5 -251.5t75.5 -368.5q0 -123 -26 -240t-73 -216.5t-114 -183.5t-146 -142.5t-172.5 -91.5t-191.5 -33q-164 0 -277.5 66t-113.5 163q0 58 36.5 92.5t98.5 34.5q39 0 67 -18t42 -45t32 -59t36 -59t55 -45 t88 -18q138 0 231.5 165t93.5 409l-6 4q-67 -74 -143 -109t-176 -35q-226 0 -378.5 149.5t-152.5 371.5zM422 1055q0 -200 58.5 -304t170.5 -104q89 0 157.5 57t133.5 183v100q0 246 -68.5 372t-199.5 126q-129 0 -190.5 -105t-61.5 -325z" />
<glyph unicode=":" horiz-adv-x="581" d="M135 131q0 66 45 112t109 46q67 0 112 -46t45 -112q0 -63 -45 -107t-112 -44q-64 0 -109 44t-45 107zM135 778q0 66 45 112t109 46q67 0 112 -46t45 -112q0 -63 -45 -107t-112 -44q-64 0 -109 44t-45 107z" />
<glyph unicode=";" horiz-adv-x="604" d="M100 -231q112 74 163.5 133t51.5 114q-28 -16 -61 -16q-43 0 -73.5 38.5t-30.5 92.5q0 67 44 112.5t109 45.5q72 0 115 -51.5t43 -139.5q0 -217 -301 -415zM150 778q0 66 44.5 112t108.5 46q67 0 112.5 -46t45.5 -112q0 -63 -45.5 -107t-112.5 -44q-64 0 -108.5 44 t-44.5 107z" />
<glyph unicode="&#x3c;" horiz-adv-x="1214" d="M74 623v131l983 475v-142l-860 -399l860 -399v-142z" />
<glyph unicode="=" horiz-adv-x="1265" d="M145 496v122h975v-122h-975zM145 864v123h975v-123h-975z" />
<glyph unicode="&#x3e;" horiz-adv-x="1214" d="M158 147v142l860 399l-860 399v142l983 -475v-131z" />
<glyph unicode="?" horiz-adv-x="825" d="M111 1473q0 61 39.5 92.5t113.5 31.5q120 0 228 -71.5t173.5 -190.5t65.5 -250q0 -164 -92 -256t-258 -92v-248h-139v486h71q281 0 281 182q0 89 -54.5 153t-131.5 64q-27 0 -83 -11t-79 -11q-60 0 -97.5 33.5t-37.5 87.5zM147 133q0 65 45 110.5t111 45.5 q65 0 110.5 -45.5t45.5 -110.5t-45 -109t-111 -44t-111 43.5t-45 109.5z" />
<glyph unicode="@" horiz-adv-x="2172" d="M82 616q0 162 55.5 312.5t158 270.5t240 210t309 139t357.5 49q256 0 453 -91.5t305 -258t108 -383.5q0 -139 -45 -269.5t-119.5 -226t-176.5 -153t-211 -57.5q-110 0 -170.5 60t-69.5 175h-8q-67 -112 -161 -173.5t-194 -61.5q-141 0 -241.5 112t-100.5 269 q0 139 85.5 271.5t223.5 214t283 81.5q100 0 155.5 -46t86.5 -155h8l47 180h248l-143 -464q-58 -188 -58 -259q0 -37 26 -59t69 -22q83 0 165 85t133.5 219.5t51.5 270.5q0 134 -55 251t-151.5 200t-232 130.5t-290.5 47.5q-184 0 -348 -67.5t-281.5 -183t-185.5 -277 t-68 -343.5q0 -228 104 -403t293.5 -271t436.5 -96q351 0 655 205l65 -84q-192 -126 -370.5 -182.5t-382.5 -56.5q-229 0 -426 66.5t-336 183t-218 282.5t-79 358zM844 483q0 -104 31.5 -158.5t91.5 -54.5q80 0 166 83t143 209t57 243q0 94 -37.5 144t-107.5 50 q-87 0 -167 -72.5t-128.5 -192.5t-48.5 -251z" />
<glyph unicode="A" d="M-27 0v82q100 11 150.5 45.5t85.5 120.5l539 1349h151l490 -1196q30 -74 50 -118.5t44 -82t42.5 -55.5t49.5 -32t60.5 -19t80.5 -10v-84h-774v84q104 5 144 22t40 64q0 46 -53 184l-47 123h-580q-96 -214 -96 -301q0 -58 42 -76t143 -18v-82h-562zM494 600h487l-236 621 h-8z" />
<glyph unicode="B" horiz-adv-x="1632" d="M68 0v82q73 2 112.5 11t64.5 36t32.5 68.5t7.5 117.5v947q0 99 -13.5 145t-48.5 65t-112 23v82h657q307 0 475 -100t168 -283q0 -123 -86.5 -208t-263.5 -136v-8q223 0 357 -119.5t134 -306.5q0 -205 -194 -314q-182 -102 -502 -102h-788zM586 358q0 -126 65 -179.5 t219 -53.5q166 0 248 73.5t82 223.5q0 183 -119 266q-115 80 -397 80h-98v-410zM586 891h121q179 0 274 67q98 68 98 211q0 149 -74 216t-237 67h-145q-17 0 -27 -10t-10 -25v-526z" />
<glyph unicode="C" horiz-adv-x="1685" d="M96 762q0 184 62 339.5t172 264.5t267.5 170t342.5 61q124 0 233.5 -34.5t235.5 -112.5l39 127h100l-41 -518h-82q-43 188 -168 296.5t-299 108.5q-240 0 -372.5 -183.5t-132.5 -506.5q0 -318 131.5 -488.5t382.5 -170.5q203 0 338 111.5t192 328.5h90v-555h-96l-29 162 q-225 -182 -547 -182q-374 0 -596.5 212.5t-222.5 569.5z" />
<glyph unicode="D" horiz-adv-x="1882" d="M72 0v82q72 2 110.5 11t64 35.5t33 68.5t7.5 118v947q0 143 -33 185t-150 48v82h779q194 0 362 -61.5t287.5 -169t187.5 -259t68 -325.5q0 -222 -109 -395.5t-305.5 -270t-447.5 -96.5h-854zM588 358q0 -119 73.5 -176t227.5 -57q268 0 412.5 163t144.5 470 q0 326 -151 510t-416 184h-256q-17 0 -26 -9.5t-9 -25.5v-1059z" />
<glyph unicode="E" horiz-adv-x="1564" d="M72 0v82q72 2 111 11t64 36t32.5 68.5t7.5 117.5v947q0 75 -6.5 116t-29 68t-57.5 36.5t-100 12.5v82h1295l14 -401h-88q-26 171 -112.5 231.5t-305.5 60.5h-231q-52 0 -65 -12.5t-13 -62.5v-521q70 0 118 1.5t92.5 6.5t72 12.5t52 22t38 31.5t25 44t17.5 57.5t11 74.5 h76v-600h-76q-9 59 -19 95.5t-31.5 66.5t-46.5 44.5t-74.5 24.5t-106 12.5t-148.5 2.5v-422q0 -132 76 -182.5t274 -50.5q159 0 250 31.5t142.5 107t80.5 217.5h82l-33 -469h-1388z" />
<glyph unicode="F" horiz-adv-x="1411" d="M72 0v82q72 2 111 11t64 36t32.5 68.5t7.5 117.5v947q0 75 -6.5 116t-29 68t-57.5 36.5t-100 12.5v82h1254l24 -432h-86q-17 121 -55 187.5t-114.5 98t-209.5 31.5h-282q-37 0 -37 -35v-591q87 0 146 4t107 16t77 30t50 49t31 70t15 97h76v-641h-76q-9 60 -20 99.5 t-33.5 70.5t-50 48.5t-76 28.5t-104.5 14.5t-142 4.5v-397q0 -56 3.5 -91t16.5 -64.5t31.5 -45t54.5 -26.5t80 -15t113 -6v-82h-815z" />
<glyph unicode="G" horiz-adv-x="1794" d="M96 760q0 246 104 436.5t292 295.5t430 105q127 0 241 -34.5t248 -112.5l39 127h74v-518h-103q-40 192 -164.5 298.5t-310.5 106.5q-233 0 -364 -182t-131 -506q0 -318 128 -488.5t367 -170.5q172 0 270.5 89.5t98.5 246.5q0 94 -50 138.5t-165 53.5v82h663v-82 q-100 0 -139 -44t-39 -159v-272q-90 0 -136.5 -15.5t-158.5 -82.5q-157 -92 -393 -92q-369 0 -585 210.5t-216 569.5z" />
<glyph unicode="H" horiz-adv-x="1935" d="M72 0v82q73 2 112 11t64 36t32 68.5t7 117.5v947q0 50 -2.5 83t-11 60t-20.5 42t-35 26t-51.5 15.5t-72.5 6.5v82h707v-82q-49 -2 -80 -6t-56.5 -15.5t-39 -27t-23 -45t-12 -64.5t-2.5 -90v-377h760v392q0 143 -38.5 185t-176.5 48v82h708v-82q-124 -4 -158 -48t-34 -200 v-917q0 -83 7 -127t32 -72.5t64 -37.5t112 -11v-82h-752v82q53 2 87.5 6t62.5 14.5t43.5 25.5t25.5 42.5t13.5 60.5t3.5 84v428h-760v-413q0 -55 3 -90.5t13 -65t25 -45t43 -26.5t62 -15t87 -6v-82h-749z" />
<glyph unicode="I" horiz-adv-x="878" d="M74 0v82q59 2 93.5 9.5t61 23.5t38 51t17 83t5.5 128v823q0 177 -35.5 233t-159.5 62v82h690v-82q-52 -2 -85 -12t-55.5 -28t-33.5 -54t-15.5 -81.5t-4.5 -119.5v-823q0 -80 5.5 -128t17 -83t38 -51t61 -23.5t93.5 -9.5v-82h-731z" />
<glyph unicode="J" horiz-adv-x="833" d="M-344 -307q0 57 37 90t94 33q45 0 73.5 -24t69.5 -93q39 -66 72 -89.5t82 -23.5q87 0 134.5 96.5t47.5 270.5v1309q0 76 -6 116.5t-28.5 67.5t-58 36.5t-101.5 12.5v82h690v-82q-54 -2 -86 -9t-55.5 -21t-34 -44t-15 -69t-4.5 -105v-1251q0 -258 -132.5 -393t-389.5 -135 q-181 0 -285 62.5t-104 162.5z" />
<glyph unicode="K" horiz-adv-x="1683" d="M72 0v82q72 2 111 11t64 36t32.5 68.5t7.5 117.5v947q0 141 -35 184t-158 49v82h707v-82q-49 -2 -80 -6t-56.5 -15.5t-39 -27t-23 -45t-12 -64.5t-2.5 -90v-454l530 569q47 50 47 86q0 47 -139 47v82h559v-80q-92 -3 -148 -35.5t-177 -158.5l-365 -381l602 -734 q42 -54 94.5 -77.5t134.5 -28.5v-82h-757v82q83 2 120 14.5t37 40.5q0 21 -13 43t-60 80l-363 447l-102 -107v-270q0 -156 34 -200t160 -48v-82h-710z" />
<glyph unicode="L" horiz-adv-x="1546" d="M72 0v82q72 2 111 11t64 36t32.5 68.5t7.5 117.5v947q0 75 -6.5 116t-29 68t-57.5 36.5t-100 12.5v82h707v-82q-49 -2 -80 -6t-56.5 -15.5t-39 -27t-23 -45t-12 -64.5t-2.5 -90v-858q0 -87 17 -140t62 -84t112 -41.5t179 -10.5q123 0 199.5 14t133 54.5t88.5 107 t55 176.5h82l-33 -465h-1411z" />
<glyph unicode="M" horiz-adv-x="2344" d="M61 0v82q54 2 88.5 6t63.5 17t43.5 31.5t25.5 53t14 77.5t3 110v823q0 92 -7.5 144.5t-31.5 89t-65 49t-111 12.5v82h621l477 -1194h8l473 1194h598v-82q-70 0 -110 -12.5t-63.5 -50t-30.5 -92.5t-7 -154v-795q0 -72 3 -117t13 -81.5t24.5 -55.5t43 -32t62 -17t88.5 -6 v-82h-771v82q65 2 103 9.5t67 23.5t42 51t18.5 82.5t5.5 128.5v958h-10l-551 -1355h-152l-569 1355h-8v-944q0 -72 3 -117t13 -81.5t24 -55.5t42.5 -32t62 -17t88.5 -6v-82h-631z" />
<glyph unicode="N" horiz-adv-x="1925" d="M61 0v82q54 2 87.5 6t62.5 17t44 31.5t25.5 53t13.5 77.5t3 110v823q0 92 -7.5 143.5t-31.5 87t-64.5 48.5t-111.5 16v82h571l826 -1184h8v793q0 71 -3 116.5t-12.5 82t-22.5 55.5t-39 32t-56.5 17t-79.5 6v82h608v-82q-54 -2 -87.5 -6t-62.5 -17t-43.5 -31.5t-25 -53 t-13.5 -77.5t-3 -110v-1220h-275l-907 1292h-8v-881q0 -71 3 -116.5t12.5 -82t22.5 -55.5t39 -32t56.5 -17t79.5 -6v-82h-609z" />
<glyph unicode="O" horiz-adv-x="1931" d="M92 776q0 228 115.5 416.5t316.5 296.5t443 108q182 0 344 -63.5t278 -173t184 -261.5t68 -323q0 -164 -68.5 -311.5t-185.5 -253.5t-278.5 -168.5t-341.5 -62.5t-342 62.5t-279 168.5t-185.5 253.5t-68.5 311.5zM449 770q0 -303 139.5 -480t378.5 -177q238 0 378 177.5 t140 479.5q0 320 -139.5 507t-378.5 187t-378.5 -187t-139.5 -507z" />
<glyph unicode="P" horiz-adv-x="1468" d="M72 0v82q72 2 111 11t64 36t32.5 68.5t7.5 117.5v947q0 50 -2.5 83t-11 60t-20.5 42t-35 26t-51.5 15.5t-72.5 6.5v82h709q310 0 470.5 -111.5t160.5 -326.5q0 -220 -173 -336.5t-499 -116.5h-174v-360q0 -55 4 -91t17 -65t32 -44.5t54.5 -26t79 -14t110.5 -3.5v-82h-813 zM588 809h133q196 0 289.5 81t93.5 251q0 156 -80 238.5t-242 82.5h-157q-17 0 -27 -10t-10 -25v-618z" />
<glyph unicode="Q" horiz-adv-x="1943" d="M94 772q0 138 43 264.5t122 228t185.5 176.5t240.5 115.5t280 40.5q183 0 347 -64t282.5 -174t187.5 -262.5t69 -322.5q0 -209 -103 -387t-290 -299q-70 -44 -142.5 -77t-221.5 -85q-141 -50 -215 -98v-8q36 4 79 4q78 0 166.5 -19t155.5 -42.5t155 -42.5t164 -19 q97 0 153 35.5t87 116.5h76q8 -47 8 -89q0 -127 -108.5 -211.5t-270.5 -84.5q-84 0 -171 25.5t-159 62t-140 73.5t-137.5 62.5t-127.5 25.5q-40 0 -73.5 -12t-56.5 -29t-44 -34t-46.5 -29t-53.5 -12q-35 0 -55.5 16t-20.5 41q0 35 31 64t118 77l258 146q-216 18 -393 132.5 t-278 297.5t-101 397zM451 768q0 -327 138 -517t376 -190q241 0 385.5 193t144.5 514q0 319 -143.5 507.5t-386.5 188.5q-239 0 -376.5 -186t-137.5 -510z" />
<glyph unicode="R" horiz-adv-x="1669" d="M72 0v82q135 0 175 44t40 189v947q0 76 -6 116.5t-28 68t-57.5 36.5t-101.5 12v82h709q294 0 457 -104.5t163 -290.5q0 -176 -101 -289t-310 -150l475 -544q49 -56 116.5 -86.5t137.5 -30.5v-82h-486l-507 623q-86 104 -160 104v-401q0 -81 9 -124.5t42.5 -73t89 -38 t156.5 -8.5v-82h-813zM588 850h133q195 0 289 76.5t94 244.5q0 132 -80.5 211.5t-220.5 79.5h-178q-17 0 -27 -10t-10 -25v-577z" />
<glyph unicode="S" horiz-adv-x="1357" d="M111 522h79q28 -192 155.5 -305t313.5 -113q154 0 248 70t94 184q0 67 -31.5 111.5t-111 88t-242.5 104.5q-238 91 -353.5 214t-115.5 287q0 192 141 313t365 121q202 0 379 -131l37 103h49l23 -443h-80q-49 166 -153 256.5t-242 90.5q-126 0 -205.5 -63t-79.5 -161 q0 -88 68 -141t280 -133q285 -109 411 -232.5t126 -293.5q0 -136 -77.5 -243t-217 -166.5t-316.5 -59.5q-121 0 -221 34t-203 109l-41 -123h-49z" />
<glyph unicode="T" horiz-adv-x="1693" d="M25 1126l20 451h1604l20 -451h-88q-6 101 -29 168t-67.5 105.5t-103 54.5t-144.5 16q-107 0 -158.5 -6t-68.5 -18.5t-17 -38.5v-1073q0 -72 9 -113.5t38.5 -74.5t84 -47t145.5 -17v-82h-858v82q92 3 147 17t84.5 47t39 75t9.5 113v1073q0 26 -15 38.5t-59.5 18.5 t-136.5 6q-52 0 -84 -1.5t-75.5 -8.5t-70.5 -20.5t-57 -38.5t-47 -61.5t-29 -90t-14 -123.5h-79z" />
<glyph unicode="U" horiz-adv-x="1802" d="M55 1495v82h736v-82q-87 0 -128 -9.5t-63 -35.5q-28 -32 -37.5 -100.5t-9.5 -229.5v-536q0 -232 100 -344.5t305 -112.5q422 0 422 469v473q0 171 -12.5 252t-46.5 119q-28 29 -74 42t-125 13v82h664v-82q-75 0 -116 -11.5t-64 -39.5q-31 -38 -43.5 -121.5t-12.5 -253.5 v-434q0 -347 -155.5 -501t-507.5 -154q-330 0 -482.5 138.5t-152.5 440.5v561q0 159 -7.5 226.5t-29.5 99.5q-19 28 -53.5 38.5t-106.5 10.5z" />
<glyph unicode="V" horiz-adv-x="1648" d="M-63 1493v84h774v-84q-107 -3 -145 -20.5t-38 -61.5q0 -50 41 -162l328 -897l266 682q76 196 97.5 265.5t21.5 115.5q0 49 -36.5 64.5t-147.5 15.5v82h581v-82q-169 0 -235 -166l-539 -1349h-151l-490 1196q-55 133 -98 198.5t-94.5 92t-134.5 26.5z" />
<glyph unicode="W" horiz-adv-x="2512" d="M-57 1493v84h774v-84q-101 0 -141.5 -19.5t-40.5 -64.5q0 -30 9 -61.5t42 -124.5l286 -826l332 906q-38 108 -85.5 143.5t-149.5 46.5v84h723v-84q-89 0 -128.5 -22.5t-39.5 -81.5q0 -56 35 -166l258 -826l276 791q49 137 49 205q0 60 -41 81t-139 21v82h582v-82 q-81 0 -143 -40.5t-93 -125.5l-493 -1349h-183l-356 1081l-406 -1081h-170l-434 1196q-39 106 -70.5 168t-70.5 95.5t-78.5 43.5t-103.5 10z" />
<glyph unicode="X" horiz-adv-x="1736" d="M-4 0v82q113 0 167.5 24.5t121.5 106.5l448 547l-477 618q-53 67 -107.5 92t-128.5 25v82h771v-82q-140 0 -140 -74q0 -54 62 -137l211 -291l264 316q57 68 57 123q0 22 -11.5 35t-48.5 20.5t-106 7.5v82h611v-82q-88 0 -134.5 -12.5t-76.5 -48.5l-457 -566l465 -641 q107 -145 272 -145v-82h-764v82q97 0 128.5 12.5t31.5 40.5q0 24 -20 57.5t-88 129.5l-220 311l-141 -174q-29 -35 -69.5 -82t-66 -76.5t-51 -62t-38 -57t-12.5 -42.5q0 -32 40.5 -44.5t135.5 -12.5v-82h-629z" />
<glyph unicode="Y" horiz-adv-x="1556" d="M-29 1495v82h688v-82q-84 0 -119.5 -16t-35.5 -49q0 -31 51 -127l293 -560h8l258 431q68 115 94.5 171.5t26.5 88.5q0 35 -32 48t-118 13v82h514v-82q-47 0 -81 -14t-77 -58t-90 -114.5t-120 -196.5l-299 -512v-209q0 -84 6 -137t18.5 -89t39 -53t60 -23.5t89.5 -6.5v-82 h-729v82q69 0 106.5 9.5t64 41.5t35.5 88.5t9 155.5v188l-424 754q-61 106 -108.5 141t-127.5 35z" />
<glyph unicode="Z" horiz-adv-x="1632" d="M31 0v47l1030 1423h-518q-150 0 -227 -74t-107 -237h-80l33 418h1327v-47l-1020 -1415h586q75 0 129 7.5t96.5 27.5t70 48t49 77t35 105.5t27.5 141.5h94l-26 -522h-1499z" />
<glyph unicode="[" horiz-adv-x="802" d="M197 -307v1986h579v-106h-325v-1774h325v-106h-579z" />
<glyph unicode="\" horiz-adv-x="976" d="M45 1577h125l760 -1577h-146z" />
<glyph unicode="]" horiz-adv-x="802" d="M27 -201h325v1774h-325v106h579v-1986h-579v106z" />
<glyph unicode="^" horiz-adv-x="1007" d="M131 471l277 369h192l277 -369h-117l-256 203l-256 -203h-117z" />
<glyph unicode="_" horiz-adv-x="1495" d="M135 -143h1225v-160h-1225v160z" />
<glyph unicode="`" horiz-adv-x="612" d="M33 1573q0 43 30.5 67.5t81.5 24.5q79 0 174 -88l261 -244h-131l-275 123q-73 33 -107 58.5t-34 58.5z" />
<glyph unicode="a" horiz-adv-x="1175" d="M70 244q0 92 82 171t264 152l289 125v86q0 118 -42.5 173t-130.5 55q-57 0 -88.5 -31t-58.5 -107q-40 -108 -145 -108q-57 0 -88 35t-31 98q0 99 110.5 156t321.5 57q230 0 328 -83t98 -278v-448q0 -174 70 -174q37 0 71 27l31 -60q-28 -51 -89 -80.5t-136 -29.5 q-93 0 -143 57t-50 162h-10q-58 -105 -153.5 -161t-215.5 -56q-127 0 -205.5 72.5t-78.5 189.5zM358 301q0 -59 32.5 -94t82.5 -35q99 0 165.5 63t66.5 154v195q-179 -82 -263 -148t-84 -135z" />
<glyph unicode="b" horiz-adv-x="1380" d="M-2 1548v70l459 82v-756h8q53 77 138 119.5t190 42.5q142 0 259.5 -74.5t184 -203.5t66.5 -283q0 -159 -72.5 -290.5t-194.5 -204.5t-266 -73q-111 0 -210.5 43.5t-160.5 116.5l-155 -137h-70v1219q0 191 -27 264q-12 31 -37 42t-112 23zM461 449q0 -152 79.5 -252.5 t200.5 -100.5q122 0 186 113.5t64 331.5q0 213 -63 324.5t-187 111.5q-74 0 -136 -40t-97 -112q-47 -96 -47 -247v-129z" />
<glyph unicode="c" horiz-adv-x="1155" d="M80 539q0 253 163.5 410t426.5 157q184 0 306 -69.5t122 -172.5q0 -60 -34 -94.5t-91 -34.5q-47 0 -83 24.5t-71 80.5q-61 96 -91 121.5t-83 25.5q-118 0 -184 -111t-66 -309q0 -213 79 -327.5t226 -114.5q170 0 328 123l53 -78q-76 -86 -193 -133t-251 -47 q-249 0 -403 151.5t-154 397.5z" />
<glyph unicode="d" horiz-adv-x="1421" d="M80 535q0 244 148.5 407.5t369.5 163.5q213 0 320 -135h8v174q0 264 -13 321q-9 43 -62.5 62.5t-160.5 19.5v70l518 82v-1172q0 -276 15 -362q9 -54 36 -69t115 -15v-80l-389 -22v151h-8q-142 -151 -367 -151q-233 0 -381.5 155.5t-148.5 399.5zM391 539q0 -213 64 -328 t182 -115q68 0 129.5 34.5t99.5 94.5q56 85 56 283v80q0 158 -66 262q-36 58 -93 89.5t-124 31.5q-120 0 -184 -111.5t-64 -320.5z" />
<glyph unicode="e" horiz-adv-x="1198" d="M78 528q0 167 75 299t209 205.5t304 73.5q217 0 337.5 -117.5t120.5 -326.5q0 -33 -10 -40.5t-57 -7.5h-660q-8 -19 -8 -67q0 -200 87.5 -317t236.5 -117q171 0 336 149l57 -72q-187 -210 -465 -210q-252 0 -407.5 151.5t-155.5 396.5zM412 729h297q84 0 106.5 9t22.5 44 q0 89 -51.5 147t-129.5 58q-87 0 -156 -72.5t-89 -185.5z" />
<glyph unicode="f" horiz-adv-x="907" d="M35 973v112h221v115q0 223 143 361.5t375 138.5q138 0 229 -49.5t91 -124.5q0 -46 -35.5 -77.5t-87.5 -31.5q-35 0 -61.5 22t-86.5 93q-45 53 -106 53q-82 0 -129 -100.5t-47 -272.5v-127h346v-112h-346v-633q0 -154 44 -204.5t179 -53.5v-82h-692v82q44 2 71 6t49.5 15 t33.5 25t18.5 43t9.5 63t2 90v649h-221z" />
<glyph unicode="g" horiz-adv-x="1249" d="M45 -246q0 102 54.5 158.5t140.5 56.5q54 0 104 -22t84 -62q-54 -11 -87.5 -48.5t-33.5 -88.5q0 -82 74 -126t213 -44q307 0 307 195q0 71 -47 120.5t-131 59.5l-358 49q-228 30 -228 203q0 83 54 137t155 74v8q-92 37 -151.5 128.5t-59.5 195.5q0 154 120 256t300 102 q87 0 170.5 -27t144.5 -73q93 58 146 79t104 21q78 0 126 -35t48 -92q0 -43 -26.5 -70.5t-69.5 -27.5q-27 0 -49.5 13.5t-35.5 30.5t-35.5 30.5t-49.5 13.5q-42 0 -82 -56q37 -64 37 -168q0 -161 -105.5 -263.5t-328.5 -127.5q-98 -11 -136 -27t-38 -48q0 -49 92 -58 q174 -14 334 -39q158 -23 250 -120t92 -240q0 -173 -144 -263.5t-421 -90.5q-254 0 -393.5 75t-139.5 211zM412 739q0 -121 42 -194.5t111 -73.5q66 0 103 70t37 194q0 126 -37 195t-105 69q-69 0 -110 -70t-41 -190z" />
<glyph unicode="h" horiz-adv-x="1462" d="M33 0v82q45 3 71.5 6.5t49 14.5t33 24.5t18 43t9 62t1.5 89.5v841q0 232 -14 301q-10 52 -39.5 67t-122.5 15v76l457 78v-756h8q63 83 143.5 122.5t188.5 39.5q200 0 311 -123q54 -62 84.5 -149t30.5 -181v-317q0 -63 1 -97.5t8.5 -66.5t16.5 -45t31.5 -24.5t47 -14.5 t69.5 -6v-82h-641v82q44 2 70.5 5.5t49 14.5t33 25t18 43t9.5 62.5t2 89.5v251q0 219 -47 308.5t-162 89.5q-123 0 -195 -90q-73 -98 -73 -273v-272q0 -61 1.5 -96t8.5 -66.5t17 -45t32.5 -25t48 -15t70.5 -6.5v-82h-645z" />
<glyph unicode="i" horiz-adv-x="739" d="M51 958v70l475 78v-770q0 -58 2 -94t9.5 -66.5t18.5 -46t32.5 -27t48 -15t68.5 -5.5v-82h-646v82q60 3 94 13t55 38t27.5 70.5t6.5 118.5v251q0 232 -15 301q-10 51 -46 67.5t-130 16.5zM225 1540q0 67 46 113.5t112 46.5q67 0 113.5 -46t46.5 -114q0 -66 -46.5 -112 t-113.5 -46q-66 0 -112 46t-46 112z" />
<glyph unicode="j" horiz-adv-x="677" d="M-313 -330q0 49 32.5 78t77.5 29q42 0 72.5 -20.5t48 -50.5t35 -59.5t46.5 -50t69 -20.5q77 0 114 61.5t37 202.5v754q0 213 -16 283q-11 48 -45.5 64.5t-128.5 16.5v70l475 78v-1110q0 -255 -124.5 -391.5t-356.5 -136.5q-154 0 -245 57t-91 145zM203 1540 q0 67 45.5 113.5t111.5 46.5q68 0 114 -46t46 -114q0 -66 -46.5 -112t-113.5 -46q-66 0 -111.5 46t-45.5 112z" />
<glyph unicode="k" horiz-adv-x="1359" d="M33 0v82q114 3 148 48t34 192v868q0 71 -0.5 112.5t-4 84.5t-7 64t-14.5 42.5t-21.5 29t-31.5 14.5t-41.5 8t-55.5 1v76l457 78v-1139l196 187q108 102 152.5 152t44.5 71q0 19 -38.5 26t-139.5 7v81h559v-81q-78 0 -136.5 -26.5t-129.5 -92.5l-199 -187l354 -501 q47 -66 92 -90.5t119 -24.5v-82h-637v82q66 0 92.5 6t26.5 21q0 28 -98 172l-156 233l-102 -98v-80q0 -109 11.5 -161t40 -72.5t89.5 -20.5v-82h-604z" />
<glyph unicode="l" horiz-adv-x="727" d="M31 1552v70l475 78v-1364q0 -58 2 -94t9.5 -66.5t18 -46t32.5 -27t48 -15t68 -5.5v-82h-645v82q60 3 93.5 13t54.5 38t27.5 70.5t6.5 118.5v845q0 236 -14 301q-10 51 -46 67.5t-130 16.5z" />
<glyph unicode="m" horiz-adv-x="2265" d="M53 958v70l396 78l24 -178h12q86 95 173.5 136.5t201.5 41.5q265 0 357 -182h8q74 87 177 134.5t218 47.5q121 0 213 -31t143 -88q80 -92 80 -334v-315q0 -61 1.5 -96.5t9 -67t17.5 -45.5t32.5 -25.5t48 -15t69.5 -6.5v-82h-647v82q44 2 70.5 6t49 15t33.5 25t18 43t9 62 t2 89v268q0 214 -50.5 298.5t-178.5 84.5q-125 0 -194 -125q-54 -97 -54 -240v-270q0 -62 1.5 -97t8.5 -66.5t17 -45.5t33 -25.5t49 -15t72 -6.5v-82h-650v82q45 3 71 6.5t49 14.5t33.5 25t18 42.5t9.5 62t2 89.5v268q0 215 -52 299t-186 84q-120 0 -184 -121 q-56 -106 -56 -244v-270q0 -63 1.5 -98t8.5 -66.5t16.5 -45.5t32 -25.5t48 -14.5t70.5 -6v-82h-648v82q45 3 71 6.5t49.5 14.5t34 25t18.5 42.5t10 62.5t2 89v253q0 247 -15 302q-12 52 -43.5 66.5t-130.5 14.5z" />
<glyph unicode="n" horiz-adv-x="1488" d="M51 958v70l395 78l27 -180h8q68 86 162 133t201 47q130 0 211.5 -36t144.5 -120q88 -118 88 -327v-289q0 -60 1.5 -95t9 -65.5t17 -45t31.5 -25.5t47 -14.5t68 -6.5v-82h-641v82q44 2 70.5 6t49 14.5t33 24.5t18.5 42.5t10 62t2 87.5v279q0 210 -52.5 292.5t-185.5 82.5 q-124 0 -195 -139q-45 -88 -45 -218v-282q0 -45 1 -74t4.5 -57t8 -43.5t15 -30.5t22 -21.5t32 -12.5t41.5 -8.5t55 -4.5v-82h-646v82q65 4 97 11.5t54 34.5t27 68.5t5 122.5v256q0 231 -15 297q-12 53 -46.5 69.5t-129.5 16.5z" />
<glyph unicode="o" horiz-adv-x="1351" d="M76 551q0 158 81.5 286t217.5 198.5t297 70.5q162 0 300 -70.5t221 -199t83 -285.5q0 -162 -83 -294t-221 -204.5t-300 -72.5q-161 0 -297 72t-217.5 204t-81.5 295zM397 549q0 -203 74.5 -324t200.5 -121q129 0 205.5 121.5t76.5 323.5q0 196 -77.5 317t-204.5 121 q-124 0 -199.5 -120.5t-75.5 -317.5z" />
<glyph unicode="p" horiz-adv-x="1427" d="M35 961v79l411 58v-146h9q136 154 352 154q238 0 390.5 -158.5t152.5 -404.5q0 -161 -69 -289.5t-192.5 -201t-277.5 -72.5q-197 0 -303 135h-8v-285q0 -58 3 -94.5t13.5 -66.5t26 -46t45 -27.5t65 -15.5t92.5 -6v-86h-706v86q76 2 112.5 22t51 69t14.5 151v762 q0 220 -14 299q-9 47 -45.5 65.5t-122.5 18.5zM504 475q0 -145 71 -248q77 -112 220 -112q124 0 184.5 104.5t60.5 319.5q0 450 -245 450q-66 0 -125.5 -28.5t-94.5 -75.5q-71 -96 -71 -271v-139z" />
<glyph unicode="q" horiz-adv-x="1380" d="M80 539q0 249 149 408t381 159q206 0 351 -139l155 118h90v-1259q0 -62 1.5 -98t10 -67.5t19.5 -46t36 -25.5t53.5 -14t78.5 -5v-82h-733v82q149 3 200.5 52.5t51.5 189.5v315h-11q-70 -78 -144 -112.5t-169 -34.5q-226 0 -373 158t-147 401zM389 551q0 -212 65.5 -325 t188.5 -113q74 0 134.5 39.5t94.5 109.5q48 102 48 248v127q0 151 -79 250.5t-198 99.5q-122 0 -188 -113.5t-66 -322.5z" />
<glyph unicode="r" horiz-adv-x="1019" d="M53 958v72l410 76l33 -236h8q56 108 146.5 172t189.5 64q78 0 127 -38.5t49 -98.5q0 -67 -39.5 -111.5t-102.5 -44.5q-36 0 -68.5 20.5t-59.5 41t-50 20.5q-38 0 -73.5 -51t-57.5 -137q-37 -132 -37 -291v-99q0 -56 2.5 -91t12 -63t22.5 -42t40 -23.5t57.5 -12t82.5 -3.5 v-82h-684v82q38 2 62.5 6t46 9.5t33.5 18t21 27.5t13 43t5.5 58t1.5 78v249q0 90 -2.5 146.5t-10.5 103.5t-20 71t-35 40.5t-51 21t-72 4.5z" />
<glyph unicode="s" horiz-adv-x="954" d="M111 0v373h86q35 -146 100.5 -214.5t169.5 -68.5q75 0 117.5 31.5t42.5 87.5q0 57 -51.5 111.5t-165.5 115.5q-155 85 -223 168t-68 187q0 136 95.5 226.5t238.5 90.5q63 0 126 -19t109 -51l37 49h53v-309h-80q-47 117 -98 168t-121 51q-57 0 -91 -30.5t-34 -81.5 q0 -57 50.5 -108t166.5 -113q166 -89 238 -175t72 -196q0 -141 -102 -227t-271 -86q-186 0 -289 92l-45 -72h-63z" />
<glyph unicode="t" horiz-adv-x="782" d="M51 973v92q119 34 203.5 104.5t126.5 163.5h104v-248h236v-112h-236v-629q0 -126 28 -179.5t93 -53.5q79 0 121 73l43 -59q-57 -145 -270 -145q-141 0 -220 65.5t-79 183.5v744h-150z" />
<glyph unicode="u" horiz-adv-x="1452" d="M27 1004v81h458v-579q0 -206 51.5 -299.5t163.5 -93.5q123 0 187 110q65 107 65 314v213q0 61 -1 95t-8.5 65t-17 44.5t-32.5 25.5t-48 16t-71 8v81h463v-620q0 -238 14 -301q11 -53 42 -67.5t132 -14.5v-80l-407 -25l-23 183h-8q-52 -85 -148.5 -132.5t-215.5 -47.5 q-219 0 -334 155q-88 119 -88 338v277q0 47 -0.5 75t-4 56.5t-7 43t-14.5 29.5t-21 21t-31 13t-41 9.5t-55 6.5z" />
<glyph unicode="v" horiz-adv-x="1277" d="M14 1004v81h613v-81q-96 0 -123 -15t-27 -53q0 -40 35 -131l195 -537h8l219 535q31 77 31 112q0 45 -32.5 66.5t-107.5 22.5v81h453v-81q-59 0 -98 -31.5t-80 -124.5l-383 -868h-187l-323 841q-44 115 -82 149t-111 34z" />
<glyph unicode="w" horiz-adv-x="1824" d="M16 1004v81h586v-81q-72 -1 -101.5 -22t-29.5 -67q0 -24 23 -110l129 -479h8l287 759h167l215 -759h11l164 424q36 91 36 155q0 99 -129 99v81h441v-81q-32 0 -51 -5.5t-39 -20t-40.5 -52.5t-44.5 -91t-61 -147l-282 -708h-162l-217 727h-8l-277 -727h-154l-280 841 q-32 97 -75.5 137.5t-115.5 45.5z" />
<glyph unicode="x" horiz-adv-x="1327" d="M18 0v82q69 0 129.5 20.5t94.5 59.5l284 334l-342 434q-37 47 -66 60.5t-83 13.5v81h624v-81q-104 0 -104 -58q0 -20 23 -53l145 -205l108 139q35 46 45.5 60.5t18.5 31t8 31.5q0 29 -23.5 41.5t-78.5 12.5v81h471v-81q-80 -3 -134 -33.5t-137 -126.5l-208 -242l323 -416 q46 -60 91 -82t114 -22v-82h-651v82q60 0 83 10.5t23 38.5q0 38 -57 115l-119 164l-90 -109q-65 -78 -83.5 -108.5t-18.5 -47.5q0 -34 29 -48.5t95 -14.5v-82h-514z" />
<glyph unicode="y" horiz-adv-x="1323" d="M16 1004v81h621v-81q-79 0 -111 -16t-32 -56q0 -26 18 -82l209 -598h8l176 399q56 129 73 178t17 84q0 54 -30 72.5t-119 18.5v81h493v-81q-34 0 -57 -7.5t-46 -25t-49 -59t-55 -97.5t-75 -153l-469 -984q-43 -90 -131 -150t-178 -60q-68 0 -109 32.5t-41 87.5 q0 104 152 115q182 15 235 115l55 106l-362 897q-47 118 -80 149t-113 34z" />
<glyph unicode="z" horiz-adv-x="1163" d="M53 0v47l641 930h-188q-122 0 -180 -16t-87 -58.5t-46 -136.5h-80l24 319h924v-47l-631 -927h180q91 0 148 6t101.5 19.5t71 42t45 67.5t34.5 102h80l-25 -348h-1012z" />
<glyph unicode="{" horiz-adv-x="724" d="M39 666v71q116 22 154 80.5t38 183.5v349q0 82 11 137t38.5 98t77 67t123.5 36t181 12v-68q-97 -23 -137 -82.5t-40 -167.5v-356q0 -70 -8.5 -116.5t-34 -90.5t-77 -71.5t-132.5 -40.5v-11q147 -21 199.5 -89t52.5 -201v-396q0 -110 40 -167.5t147 -84.5v-65 q-255 0 -348 65t-93 250v391q0 49 -9.5 92.5t-31 82t-60 63.5t-91.5 29z" />
<glyph unicode="|" horiz-adv-x="604" d="M193 -512v2191h219v-2191h-219z" />
<glyph unicode="}" horiz-adv-x="724" d="M53 -242q107 27 147 84.5t40 167.5v396q0 133 52.5 201t199.5 89v11q-81 13 -132.5 40.5t-77 71.5t-34 90.5t-8.5 116.5v356q0 108 -40 167.5t-137 82.5v68q107 0 181 -12t123.5 -36t77 -67t38.5 -98t11 -137v-349q0 -125 38 -183.5t154 -80.5v-71q-53 -4 -91.5 -29 t-60 -63.5t-31 -82t-9.5 -92.5v-391q0 -185 -93 -250t-348 -65v65z" />
<glyph unicode="~" horiz-adv-x="1150" d="M150 510q20 126 88 200t163 74q59 0 203 -47t205 -47q43 0 67 19.5t39 66.5h93q-23 -135 -88.5 -208.5t-163.5 -73.5q-62 0 -200 49t-214 49q-43 0 -62 -15.5t-36 -66.5h-94z" />
<glyph unicode="&#xa1;" horiz-adv-x="636" d="M160 164q0 59 5.5 120t12 100.5t19.5 112.5t20 113q41 269 41 543h123q0 -274 41 -543q7 -40 20 -113t19.5 -112.5t12 -100.5t5.5 -120q0 -184 -160 -184q-159 0 -159 184zM162 1444q0 65 44.5 109t110.5 44t111 -43.5t45 -109.5q0 -65 -45 -110.5t-111 -45.5 q-64 0 -109.5 45.5t-45.5 110.5z" />
<glyph unicode="&#xa2;" horiz-adv-x="1185" d="M90 535q0 233 134 384.5t360 180.5v299h131v-293q186 -6 289.5 -80.5t103.5 -167.5q0 -50 -32 -86.5t-93 -36.5q-88 0 -154 107q-31 57 -57 88.5t-57 44.5v-848q178 3 323 121l54 -78q-62 -71 -162 -119t-215 -63v-289h-131v281q-221 9 -357.5 161t-136.5 394zM406 565 q0 -337 178 -415v831q-178 -52 -178 -416z" />
<glyph unicode="&#xa3;" horiz-adv-x="1449" d="M72 147q0 88 66 144.5t169 56.5q113 0 232 -55q8 36 8 115q0 133 -119 350h-268v125h227q-49 151 -49 272q0 203 142.5 322.5t383.5 119.5q189 0 310.5 -72t121.5 -184q0 -104 -110 -104q-44 0 -73 18t-42.5 45t-30.5 58t-35.5 58t-59 45t-99.5 18q-111 0 -178.5 -56.5 t-67.5 -150.5q0 -35 9 -90t20 -88l76 -211h436v-125h-408q29 -116 29 -203q0 -185 -82 -297q175 -35 342 -35q204 0 317 101l23 -9q0 -335 -324 -335q-86 0 -184 27t-254 93q-41 -52 -130.5 -87.5t-180.5 -35.5q-101 0 -159 46t-58 124zM231 166q0 -66 93 -66q98 0 172 58 q-121 73 -187 73q-37 0 -57.5 -17t-20.5 -48z" />
<glyph unicode="&#xa4;" horiz-adv-x="1249" d="M104 965l76 71l154 -147q126 96 291 96q161 0 290 -96l154 147l76 -71l-156 -148q105 -120 105 -278q0 -155 -101 -277l152 -145l-76 -72l-151 145q-125 -96 -293 -96q-167 0 -293 99l-152 -146l-74 70l152 145q-100 121 -100 277q0 160 100 278zM287 539 q0 -132 99.5 -227t238.5 -95t239.5 95t100.5 227q0 133 -100 228t-240 95t-239 -95t-99 -228z" />
<glyph unicode="&#xa5;" horiz-adv-x="1742" d="M57 1495v82h703v-82q-93 0 -125.5 -14.5t-32.5 -50.5q0 -41 43 -123l293 -564h8l242 410q80 135 103.5 187t23.5 90q0 35 -29.5 50t-109.5 15v82h514v-82q-49 0 -81.5 -10.5t-72 -47t-82 -99.5t-108.5 -175l-244 -418h252v-133h-336v-131h336v-133h-336q1 -89 8 -136.5 t32.5 -79t65.5 -42t115 -12.5v-78h-737v78q49 2 82 7t58 18t38.5 30.5t22 50t11 69t3.5 95.5h-338v133h338v131h-338v133h244l-330 578q-62 109 -104.5 140.5t-131.5 31.5z" />
<glyph unicode="&#xa6;" horiz-adv-x="622" d="M201 -369v789h221v-789h-221zM201 748v788h221v-788h-221z" />
<glyph unicode="&#xa7;" horiz-adv-x="1146" d="M96 0q0 83 37 131.5t100 48.5q60 0 103 -40t43 -95q0 -30 -14.5 -58t-32.5 -45.5t-32.5 -37t-14.5 -35.5q0 -44 85 -78.5t195 -34.5q130 0 202.5 54t72.5 151q0 65 -50.5 115t-214.5 143l-221 125q-129 73 -190.5 160.5t-61.5 204.5q0 217 203 313q-75 56 -119.5 145 t-44.5 185q0 158 115 253t307 95q181 0 296.5 -83t115.5 -214q0 -71 -36 -112.5t-99 -41.5q-59 0 -97 35t-38 90q0 33 15.5 56t30.5 39.5t15 33.5q0 40 -58 67t-145 27q-107 0 -164 -46t-57 -136q0 -35 14 -62t69 -72t163 -110l215 -131q135 -83 191.5 -169t56.5 -199 q0 -99 -42 -172.5t-135 -137.5q156 -137 156 -329q0 -172 -131.5 -280.5t-341.5 -108.5q-201 0 -331 100t-130 256zM293 803q0 -49 36 -95t97 -79l348 -197q96 61 96 139q-1 60 -50 120.5t-124 101.5l-286 161q-117 -65 -117 -151z" />
<glyph unicode="&#xa8;" horiz-adv-x="747" d="M41 1516q0 57 37.5 95t93.5 38q57 0 95 -38t38 -95q0 -56 -38 -94t-95 -38q-55 0 -93 38t-38 94zM442 1516q0 57 37.5 95t93.5 38q57 0 95.5 -38t38.5 -95q0 -56 -38.5 -94t-95.5 -38q-55 0 -93 38t-38 94z" />
<glyph unicode="&#xa9;" horiz-adv-x="1847" d="M92 788q0 164 65 313.5t175.5 258t263.5 173t322 64.5q171 0 326 -63.5t267 -171t178 -257t66 -314.5q0 -166 -66 -316.5t-177.5 -258.5t-266 -172t-325.5 -64q-169 0 -322.5 64.5t-264 172.5t-176 257.5t-65.5 313.5zM215 788q0 -187 93.5 -345.5t256 -251.5t355.5 -93 q115 0 223.5 35t196.5 99.5t154 149.5t102 191t36 218q0 188 -96 346.5t-260 250t-358 91.5q-145 0 -275.5 -55t-224 -148t-148.5 -220.5t-55 -267.5zM444 768q0 213 142 346t370 133q71 0 134.5 -24.5t138.5 -79.5l20 92h45l11 -268h-56q-26 83 -101 130.5t-179 47.5 q-136 0 -211.5 -97.5t-75.5 -271.5q0 -170 75 -260t216 -90q104 0 173.5 51t98.5 148h72q-32 -141 -125.5 -222t-247.5 -81q-228 0 -364 121.5t-136 324.5z" />
<glyph unicode="&#xaa;" horiz-adv-x="780" d="M109 1159q0 56 42.5 96.5t151.5 87.5l129 64v29q0 92 -86 92q-47 0 -65.5 -12.5t-32.5 -51.5q-11 -31 -26 -45t-40 -14q-27 0 -46 13.5t-19 43.5q0 56 66 95.5t182 39.5q121 0 170 -35.5t49 -121.5v-209q0 -119 47 -119q35 0 51 27l16 -45q-17 -25 -56.5 -40.5 t-82.5 -15.5q-117 0 -117 78h-8q-55 -78 -160 -78q-75 0 -120 33.5t-45 87.5zM283 1188q0 -25 18 -41.5t47 -16.5q35 0 59.5 41.5t24.5 98.5v59q-149 -64 -149 -141z" />
<glyph unicode="&#xab;" horiz-adv-x="1132" d="M94 537l402 378l65 -47l-188 -331l184 -330l-70 -49zM545 537l401 378l66 -47l-189 -331l185 -330l-70 -49z" />
<glyph unicode="&#xac;" horiz-adv-x="1304" d="M145 621v143h1004v-539h-148v396h-856z" />
<glyph unicode="&#xad;" horiz-adv-x="956" d="M135 496v194h686v-194h-686z" />
<glyph unicode="&#xae;" horiz-adv-x="1847" d="M92 788q0 164 65 313.5t175.5 258t263.5 173t322 64.5q171 0 326 -63.5t267 -171t178 -257t66 -314.5q0 -166 -66 -316.5t-177.5 -258.5t-266 -172t-325.5 -64q-169 0 -322.5 64.5t-264 172.5t-176 257.5t-65.5 313.5zM215 788q0 -187 93.5 -345.5t256 -251.5t355.5 -93 q115 0 223.5 35t196.5 99.5t154 149.5t102 191t36 218q0 188 -96 346.5t-260 250t-358 91.5q-145 0 -275.5 -55t-224 -148t-148.5 -220.5t-55 -267.5zM492 375v55q64 3 82 26.5t18 102.5v510q0 79 -16 102.5t-72 26.5v62h377q180 0 280.5 -59.5t100.5 -162.5 q0 -197 -252 -233l266 -297q56 -65 145 -78v-55h-254l-297 350q-30 34 -51 46.5t-47 12.5v-219q0 -85 25.5 -110t120.5 -25v-55h-426zM772 852h76q105 0 155 43t50 137q0 84 -40.5 120t-131.5 36h-88q-21 0 -21 -19v-317z" />
<glyph unicode="&#xaf;" horiz-adv-x="667" d="M43 1417v133h582v-133h-582z" />
<glyph unicode="&#xb0;" horiz-adv-x="684" d="M84 1352q0 101 76 173t182 72t182 -72t76 -173t-76 -173.5t-182 -72.5t-182 72.5t-76 173.5zM178 1352q0 -63 49 -108.5t115 -45.5t113 45.5t47 108.5t-47 107t-113 44q-67 0 -115.5 -44.5t-48.5 -106.5z" />
<glyph unicode="&#xb1;" horiz-adv-x="1286" d="M139 180v131h1008v-131h-1008zM139 893v131h434v428h140v-428h434v-131h-434v-428h-140v428h-434z" />
<glyph unicode="&#xb2;" horiz-adv-x="581" d="M57 1427q0 73 63.5 121.5t160.5 48.5q99 0 163 -49.5t64 -126.5q0 -47 -22 -95t-64.5 -94t-91 -87t-115.5 -88v-8h162q38 0 57.5 17t34.5 67h53l-30 -175h-433v37q179 158 241 248t62 178q0 51 -26 80t-72 29q-35 0 -59.5 -24.5t-24.5 -59.5q0 -39 20.5 -63.5t53.5 -24.5 q-3 -23 -24.5 -38t-53.5 -15q-51 0 -85 34t-34 88z" />
<glyph unicode="&#xb3;" horiz-adv-x="579" d="M55 1096q0 44 31 74t76 30q30 0 52 -13t28 -34q-23 0 -39.5 -19.5t-16.5 -46.5q0 -31 23 -49t61 -18q99 0 99 119q0 57 -23.5 90t-64.5 33q-37 -15 -60 -15q-21 0 -34 12t-13 31q0 18 12 28.5t33 10.5q22 0 55 -10q35 0 57.5 35.5t22.5 89.5q0 88 -78 88q-37 0 -57 -15.5 t-20 -43.5q0 -22 13 -35t36 -13q-3 -17 -24.5 -29t-47.5 -12q-40 0 -68 28.5t-28 68.5q0 54 52.5 85t143.5 31q102 0 163 -40t61 -107q0 -52 -37 -93.5t-94 -53.5v-9q69 -17 110 -62t41 -104q0 -77 -70 -127.5t-176 -50.5q-95 0 -157 41.5t-62 104.5z" />
<glyph unicode="&#xb4;" horiz-adv-x="612" d="M33 1333l260 244q95 88 174 88q51 0 82 -25t31 -67q0 -33 -35 -59.5t-107 -57.5l-284 -123h-121z" />
<glyph unicode="&#xb5;" horiz-adv-x="1523" d="M61 1004v81h459v-559q0 -217 51 -315t160 -98q75 0 124 33.5t87 115.5q47 118 47 295v191q0 61 -1 95t-8.5 65.5t-17 45t-32 25.5t-48 16.5t-71.5 8.5v81h461v-628q0 -224 14 -293q9 -51 41.5 -66.5t132.5 -15.5v-80l-407 -25l-23 183h-8q-43 -96 -115.5 -138t-183.5 -42 q-204 0 -309 208l-8 -2q44 -142 86.5 -324.5t42.5 -248.5q0 -67 -38.5 -106t-103.5 -39q-67 0 -110 47.5t-43 119.5v1113q0 46 -0.5 74.5t-4 57t-8 44t-15 30.5t-21.5 22t-32 13.5t-42.5 9t-55.5 5.5z" />
<glyph unicode="&#xb6;" horiz-adv-x="1349" d="M68 1145q0 209 152 320.5t439 111.5h594v-88q-90 0 -127.5 -15.5t-52.5 -58.5q-24 -65 -24 -252v-1024q0 -248 28 -315q12 -40 52.5 -57t123.5 -17v-88h-401v1804h-98v-1804h-455v88q113 0 167 18.5t69 61.5q20 58 20 309v584q-10 0 -33 -1t-41 -1q-195 0 -304 112 t-109 312z" />
<glyph unicode="&#xb7;" horiz-adv-x="575" d="M133 561q0 66 45 112t109 46q67 0 112 -46t45 -112q0 -63 -45 -107t-112 -44q-64 0 -109 44t-45 107z" />
<glyph unicode="&#xb8;" horiz-adv-x="497" d="M-8 -356q0 39 20 61.5t54 22.5q29 0 47 -16.5t37 -59.5q20 -49 40 -67.5t54 -18.5q41 0 65.5 25.5t24.5 66.5q0 54 -40.5 82.5t-115.5 28.5q-35 0 -80 -5l-4 7l113 254h133l-66 -152q128 0 202.5 -51t74.5 -139q0 -95 -81.5 -155t-209.5 -60q-117 0 -192.5 49.5 t-75.5 126.5z" />
<glyph unicode="&#xb9;" horiz-adv-x="509" d="M104 1511v52q101 3 218 34v-485q0 -64 16 -82.5t74 -19.5v-52h-303v52q58 3 74 20t16 76v260q0 109 -4 119q-3 16 -23.5 21t-67.5 5z" />
<glyph unicode="&#xba;" horiz-adv-x="784" d="M84 1321q0 118 89.5 197t215.5 79q128 0 219.5 -79t91.5 -197q0 -121 -91.5 -202t-219.5 -81q-126 0 -215.5 81t-89.5 202zM262 1321q0 -94 35 -150.5t92 -56.5q59 0 95 57t36 150q0 90 -36.5 146.5t-94.5 56.5q-56 0 -91.5 -57t-35.5 -146z" />
<glyph unicode="&#xbb;" horiz-adv-x="1132" d="M121 868l65 47l402 -378l-393 -379l-70 49l184 330zM571 868l66 47l401 -378l-393 -379l-70 49l185 330z" />
<glyph unicode="&#xbc;" horiz-adv-x="1458" d="M57 0l1188 1577h146l-1170 -1577h-164zM279 1511v52q100 3 217 34v-485q0 -64 16 -82.5t74 -19.5v-52h-303v52q58 3 74 20t16 76v260q0 109 -4 119q-3 16 -23 21t-67 5zM756 147v62l317 430h64v-432q54 1 67 13.5t13 60.5h38v-193h-38q0 39 -14 50t-66 12v-17 q0 -57 12 -74t55 -18v-41h-295v41q58 3 74 18t16 68v20h-243zM827 209h172v227h-8z" />
<glyph unicode="&#xbd;" horiz-adv-x="1466" d="M57 0l1188 1577h146l-1170 -1577h-164zM279 1511v52q100 3 217 34v-485q0 -64 16 -82.5t74 -19.5v-52h-303v52q58 3 74 20t16 76v260q0 109 -4 119q-3 16 -23 21t-67 5zM803 469q0 74 63 122t160 48q99 0 163 -49.5t64 -126.5q0 -91 -76.5 -179t-215.5 -186v-8h161 q38 0 57.5 17t34.5 67h54l-31 -174h-432v37q179 158 241 248t62 178q0 51 -26 79.5t-72 28.5q-35 0 -59.5 -24.5t-24.5 -59.5q0 -40 20.5 -64t52.5 -24q-3 -24 -24 -38.5t-53 -14.5q-51 0 -85 34.5t-34 88.5z" />
<glyph unicode="&#xbe;" horiz-adv-x="1462" d="M70 0l1187 1577h146l-1170 -1577h-163zM193 1096q0 44 31 74t75 30q30 0 52 -13t28 -34q-23 0 -39 -19.5t-16 -46.5q0 -31 23 -49t61 -18q98 0 98 119q0 57 -23.5 90t-64.5 33q-38 -15 -60 -15q-21 0 -34 12t-13 31q0 18 12 28.5t33 10.5q23 0 56 -10q35 0 57.5 35.5 t22.5 89.5q0 88 -78 88q-37 0 -57.5 -15.5t-20.5 -43.5q0 -22 13 -35t36 -13q-3 -17 -24.5 -29t-47.5 -12q-40 0 -68 28.5t-28 68.5q0 54 53 85t144 31q102 0 162.5 -40t60.5 -107q0 -52 -37 -93.5t-94 -53.5v-9q69 -17 110 -62t41 -104q0 -77 -69.5 -127.5t-175.5 -50.5 q-95 0 -157 41.5t-62 104.5zM768 147v62l317 430h64v-432q54 1 67 13.5t13 60.5h39v-193h-39q0 39 -14 50t-66 12v-17q0 -57 12.5 -73.5t55.5 -18.5v-41h-295v41q58 3 74 18t16 68v20h-244zM840 209h172v227h-8z" />
<glyph unicode="&#xbf;" horiz-adv-x="821" d="M92 492q0 164 92 256t258 92v247h140v-485h-72q-281 0 -281 -182q0 -89 55 -153t132 -64q27 0 83 11t79 11q60 0 97.5 -33.5t37.5 -87.5q0 -61 -40 -92.5t-114 -31.5q-120 0 -228 71.5t-173.5 190.5t-65.5 250zM365 1444q0 65 44.5 109t110.5 44t111 -43.5t45 -109.5 q0 -65 -45 -110.5t-111 -45.5q-64 0 -109.5 45.5t-45.5 110.5z" />
<glyph unicode="&#xc0;" d="M-27 0v82q100 11 150.5 45.5t85.5 120.5l539 1349h151l490 -1196q30 -74 50 -118.5t44 -82t42.5 -55.5t49.5 -32t60.5 -19t80.5 -10v-84h-774v84q104 5 144 22t40 64q0 46 -53 184l-47 123h-580q-96 -214 -96 -301q0 -58 42 -76t143 -18v-82h-562zM338 1890 q0 35 30.5 55.5t86.5 20.5q104 0 192 -68l258 -198h-149l-238 57q-103 25 -141.5 55.5t-38.5 77.5zM494 600h487l-236 621h-8z" />
<glyph unicode="&#xc1;" d="M-27 0v82q100 11 150.5 45.5t85.5 120.5l539 1349h151l490 -1196q30 -74 50 -118.5t44 -82t42.5 -55.5t49.5 -32t60.5 -19t80.5 -10v-84h-774v84q104 5 144 22t40 64q0 46 -53 184l-47 123h-580q-96 -214 -96 -301q0 -58 42 -76t143 -18v-82h-562zM494 600h487l-236 621 h-8zM745 1700l259 198q88 68 192 68q56 0 86.5 -20.5t30.5 -55.5q0 -47 -38.5 -77.5t-141.5 -55.5l-238 -57h-150z" />
<glyph unicode="&#xc2;" d="M-27 0v82q100 11 150.5 45.5t85.5 120.5l539 1349h151l490 -1196q30 -74 50 -118.5t44 -82t42.5 -55.5t49.5 -32t60.5 -19t80.5 -10v-84h-774v84q104 5 144 22t40 64q0 46 -53 184l-47 123h-580q-96 -214 -96 -301q0 -58 42 -76t143 -18v-82h-562zM442 1700l254 266h238 l254 -266h-137l-236 100l-235 -100h-138zM494 600h487l-236 621h-8z" />
<glyph unicode="&#xc3;" d="M-27 0v82q100 11 150.5 45.5t85.5 120.5l539 1349h151l490 -1196q30 -74 50 -118.5t44 -82t42.5 -55.5t49.5 -32t60.5 -19t80.5 -10v-84h-774v84q104 5 144 22t40 64q0 46 -53 184l-47 123h-580q-96 -214 -96 -301q0 -58 42 -76t143 -18v-82h-562zM461 1696 q20 120 88.5 197t155.5 77q50 0 178 -49q115 -45 161 -45q39 0 62.5 19.5t38.5 66.5h92q-7 -53 -32 -111t-58 -98q-62 -74 -150 -74q-64 0 -174 52q-99 47 -178 47q-35 0 -55 -18t-35 -64h-94zM494 600h487l-236 621h-8z" />
<glyph unicode="&#xc4;" d="M-27 0v82q100 11 150.5 45.5t85.5 120.5l539 1349h151l490 -1196q30 -74 50 -118.5t44 -82t42.5 -55.5t49.5 -32t60.5 -19t80.5 -10v-84h-774v84q104 5 144 22t40 64q0 46 -53 184l-47 123h-580q-96 -214 -96 -301q0 -58 42 -76t143 -18v-82h-562zM481 1849q0 51 35 84 t88 33q55 0 91 -33t36 -84q0 -54 -35.5 -87t-91.5 -33q-53 0 -88 33.5t-35 86.5zM494 600h487l-236 621h-8zM926 1849q0 51 36 84t91 33q52 0 87.5 -33.5t35.5 -83.5q0 -53 -35.5 -86.5t-87.5 -33.5q-56 0 -91.5 33t-35.5 87z" />
<glyph unicode="&#xc5;" d="M-27 0v82q100 11 150.5 45.5t85.5 120.5l539 1349h151l490 -1196q30 -74 50 -118.5t44 -82t42.5 -55.5t49.5 -32t60.5 -19t80.5 -10v-84h-774v84q104 5 144 22t40 64q0 46 -53 184l-47 123h-580q-96 -214 -96 -301q0 -58 42 -76t143 -18v-82h-562zM494 600h487l-236 621 h-8zM690 1833q0 57 39.5 95t99.5 38t100 -38t40 -95t-40 -95t-100 -38t-99.5 38t-39.5 95zM776 1833q0 -22 15 -35.5t38 -13.5q22 0 37 14t15 35q0 20 -15 33.5t-37 13.5q-23 0 -38 -13.5t-15 -33.5z" />
<glyph unicode="&#xc6;" horiz-adv-x="2326" d="M-45 0v84q98 10 151.5 45t104.5 121q29 49 67 118t86.5 158.5t180.5 331t286 522.5q17 34 17 52q0 27 -39 37t-131 10v98h1481v-401h-86q-24 173 -111 232.5t-303 59.5h-275q-17 0 -26.5 -9.5t-9.5 -24.5v-562q70 0 118.5 1.5t92.5 7t72 13t52.5 22t38 31t24.5 44 t17 57.5t11 74h75v-600h-75q-9 57 -18 90t-28.5 64.5t-45.5 46.5t-73 27t-107.5 15.5t-153.5 4.5v-428q0 -133 77 -183t281 -50q223 0 319.5 75t137.5 281h90l-31 -465h-1391v84q72 2 111 11t64.5 36t33 68.5t7.5 117.5v244h-508q-131 -236 -158 -294t-27 -97q0 -18 4 -31.5 t15 -22t19 -14.5t27.5 -9t28.5 -4t33 -2.5t31 -2.5v-84h-557zM608 684h439v793z" />
<glyph unicode="&#xc7;" horiz-adv-x="1685" d="M96 762q0 184 62 339.5t172 264.5t267.5 170t342.5 61q124 0 233.5 -34.5t235.5 -112.5l39 127h100l-41 -518h-82q-43 188 -168 296.5t-299 108.5q-240 0 -372.5 -183.5t-132.5 -506.5q0 -318 131.5 -488.5t382.5 -170.5q203 0 338 111.5t192 328.5h90v-555h-96l-29 162 q-211 -173 -512 -182l-45 -107q128 0 202.5 -51t74.5 -139q0 -95 -81.5 -155t-209.5 -60q-117 0 -192.5 49.5t-75.5 126.5q0 40 19.5 62t53.5 22q29 0 47 -16.5t37 -59.5q20 -49 40 -67.5t54 -18.5q41 0 66 25.5t25 66.5q0 54 -40.5 82.5t-115.5 28.5q-35 0 -80 -5l-4 7 l94 213q-333 28 -528 236.5t-195 541.5z" />
<glyph unicode="&#xc8;" horiz-adv-x="1564" d="M72 0v82q72 2 111 11t64 36t32.5 68.5t7.5 117.5v947q0 75 -6.5 116t-29 68t-57.5 36.5t-100 12.5v82h1295l14 -401h-88q-26 171 -112.5 231.5t-305.5 60.5h-231q-52 0 -65 -12.5t-13 -62.5v-521q70 0 118 1.5t92.5 6.5t72 12.5t52 22t38 31.5t25 44t17.5 57.5t11 74.5 h76v-600h-76q-9 59 -19 95.5t-31.5 66.5t-46.5 44.5t-74.5 24.5t-106 12.5t-148.5 2.5v-422q0 -132 76 -182.5t274 -50.5q159 0 250 31.5t142.5 107t80.5 217.5h82l-33 -469h-1388zM446 1890q0 35 30.5 55.5t86.5 20.5q105 0 193 -68l258 -198h-150l-237 57q-103 26 -142 56 t-39 77z" />
<glyph unicode="&#xc9;" horiz-adv-x="1564" d="M72 0v82q72 2 111 11t64 36t32.5 68.5t7.5 117.5v947q0 75 -6.5 116t-29 68t-57.5 36.5t-100 12.5v82h1295l14 -401h-88q-26 171 -112.5 231.5t-305.5 60.5h-231q-52 0 -65 -12.5t-13 -62.5v-521q70 0 118 1.5t92.5 6.5t72 12.5t52 22t38 31.5t25 44t17.5 57.5t11 74.5 h76v-600h-76q-9 59 -19 95.5t-31.5 66.5t-46.5 44.5t-74.5 24.5t-106 12.5t-148.5 2.5v-422q0 -132 76 -182.5t274 -50.5q159 0 250 31.5t142.5 107t80.5 217.5h82l-33 -469h-1388zM651 1700l258 198q88 68 193 68q56 0 86.5 -20.5t30.5 -55.5q0 -47 -39 -77t-142 -56 l-237 -57h-150z" />
<glyph unicode="&#xca;" horiz-adv-x="1564" d="M72 0v82q72 2 111 11t64 36t32.5 68.5t7.5 117.5v947q0 75 -6.5 116t-29 68t-57.5 36.5t-100 12.5v82h1295l14 -401h-88q-26 171 -112.5 231.5t-305.5 60.5h-231q-52 0 -65 -12.5t-13 -62.5v-521q70 0 118 1.5t92.5 6.5t72 12.5t52 22t38 31.5t25 44t17.5 57.5t11 74.5 h76v-600h-76q-9 59 -19 95.5t-31.5 66.5t-46.5 44.5t-74.5 24.5t-106 12.5t-148.5 2.5v-422q0 -132 76 -182.5t274 -50.5q159 0 250 31.5t142.5 107t80.5 217.5h82l-33 -469h-1388zM451 1700l254 266h237l254 -266h-137l-236 100l-235 -100h-137z" />
<glyph unicode="&#xcb;" horiz-adv-x="1564" d="M72 0v82q72 2 111 11t64 36t32.5 68.5t7.5 117.5v947q0 75 -6.5 116t-29 68t-57.5 36.5t-100 12.5v82h1295l14 -401h-88q-26 171 -112.5 231.5t-305.5 60.5h-231q-52 0 -65 -12.5t-13 -62.5v-521q70 0 118 1.5t92.5 6.5t72 12.5t52 22t38 31.5t25 44t17.5 57.5t11 74.5 h76v-600h-76q-9 59 -19 95.5t-31.5 66.5t-46.5 44.5t-74.5 24.5t-106 12.5t-148.5 2.5v-422q0 -132 76 -182.5t274 -50.5q159 0 250 31.5t142.5 107t80.5 217.5h82l-33 -469h-1388zM449 1849q0 51 34.5 84t87.5 33q55 0 91 -33t36 -84q0 -54 -35.5 -87t-91.5 -33 q-53 0 -87.5 33.5t-34.5 86.5zM893 1849q0 51 36 84t91 33q52 0 87.5 -33.5t35.5 -83.5q0 -53 -35.5 -86.5t-87.5 -33.5q-56 0 -91.5 33t-35.5 87z" />
<glyph unicode="&#xcc;" horiz-adv-x="878" d="M74 0v82q59 2 93.5 9.5t61 23.5t38 51t17 83t5.5 128v823q0 177 -35.5 233t-159.5 62v82h690v-82q-52 -2 -85 -12t-55.5 -28t-33.5 -54t-15.5 -81.5t-4.5 -119.5v-823q0 -80 5.5 -128t17 -83t38 -51t61 -23.5t93.5 -9.5v-82h-731zM141 1890q0 35 30.5 55.5t86.5 20.5 q105 0 193 -68l258 -198h-150l-237 57q-103 26 -142 56t-39 77z" />
<glyph unicode="&#xcd;" horiz-adv-x="878" d="M74 0v82q59 2 93.5 9.5t61 23.5t38 51t17 83t5.5 128v823q0 177 -35.5 233t-159.5 62v82h690v-82q-52 -2 -85 -12t-55.5 -28t-33.5 -54t-15.5 -81.5t-4.5 -119.5v-823q0 -80 5.5 -128t17 -83t38 -51t61 -23.5t93.5 -9.5v-82h-731zM248 1700l258 198q88 68 192 68 q56 0 86.5 -20.5t30.5 -55.5q0 -47 -38.5 -77.5t-141.5 -55.5l-238 -57h-149z" />
<glyph unicode="&#xce;" horiz-adv-x="878" d="M66 1700l253 266h238l254 -266h-137l-236 100l-235 -100h-137zM74 0v82q59 2 93.5 9.5t61 23.5t38 51t17 83t5.5 128v823q0 177 -35.5 233t-159.5 62v82h690v-82q-52 -2 -85 -12t-55.5 -28t-33.5 -54t-15.5 -81.5t-4.5 -119.5v-823q0 -80 5.5 -128t17 -83t38 -51 t61 -23.5t93.5 -9.5v-82h-731z" />
<glyph unicode="&#xcf;" horiz-adv-x="878" d="M74 0v82q59 2 93.5 9.5t61 23.5t38 51t17 83t5.5 128v823q0 177 -35.5 233t-159.5 62v82h690v-82q-52 -2 -85 -12t-55.5 -28t-33.5 -54t-15.5 -81.5t-4.5 -119.5v-823q0 -80 5.5 -128t17 -83t38 -51t61 -23.5t93.5 -9.5v-82h-731zM92 1849q0 51 35 84t88 33q55 0 91 -33 t36 -84q0 -54 -35.5 -87t-91.5 -33q-53 0 -88 33.5t-35 86.5zM537 1849q0 51 36 84t91 33q52 0 87 -33t35 -84q0 -53 -35 -86.5t-87 -33.5q-56 0 -91.5 33t-35.5 87z" />
<glyph unicode="&#xd0;" horiz-adv-x="1884" d="M74 0v82q72 2 110.5 11t64 35.5t33 68.5t7.5 118v455h-178v123h178v369q0 143 -33 185t-150 48v82h779q194 0 362 -61.5t287.5 -169t187.5 -259t68 -325.5q0 -222 -109 -395.5t-305.5 -270t-447.5 -96.5h-854zM590 358q0 -119 73.5 -176t227.5 -57q268 0 412.5 163 t144.5 470q0 326 -151 510t-416 184h-256q-17 0 -26 -9.5t-9 -25.5v-524h272v-123h-272v-412z" />
<glyph unicode="&#xd1;" horiz-adv-x="1925" d="M61 0v82q54 2 87.5 6t62.5 17t44 31.5t25.5 53t13.5 77.5t3 110v823q0 92 -7.5 143.5t-31.5 87t-64.5 48.5t-111.5 16v82h571l826 -1184h8v793q0 71 -3 116.5t-12.5 82t-22.5 55.5t-39 32t-56.5 17t-79.5 6v82h608v-82q-54 -2 -87.5 -6t-62.5 -17t-43.5 -31.5t-25 -53 t-13.5 -77.5t-3 -110v-1220h-275l-907 1292h-8v-881q0 -71 3 -116.5t12.5 -82t22.5 -55.5t39 -32t56.5 -17t79.5 -6v-82h-609zM629 1696q20 121 88 197.5t155 76.5q51 0 179 -49q115 -45 161 -45q39 0 62.5 19.5t38.5 66.5h92q-7 -53 -32 -111t-58 -98q-62 -74 -150 -74 q-64 0 -174 52q-99 47 -178 47q-35 0 -55 -18t-35 -64h-94z" />
<glyph unicode="&#xd2;" horiz-adv-x="1933" d="M92 776q0 228 115.5 416.5t316.5 296.5t443 108q182 0 344 -63.5t278 -173t184 -261.5t68 -323q0 -164 -68.5 -311.5t-185.5 -253.5t-278.5 -168.5t-341.5 -62.5t-342 62.5t-279 168.5t-185.5 253.5t-68.5 311.5zM449 770q0 -303 139.5 -480t378.5 -177q238 0 378 177.5 t140 479.5q0 320 -139.5 507t-378.5 187t-378.5 -187t-139.5 -507zM664 1890q0 35 30 55.5t86 20.5q105 0 193 -68l258 -198h-150l-237 57q-103 25 -141.5 55.5t-38.5 77.5z" />
<glyph unicode="&#xd3;" horiz-adv-x="1933" d="M92 776q0 228 115.5 416.5t316.5 296.5t443 108q182 0 344 -63.5t278 -173t184 -261.5t68 -323q0 -164 -68.5 -311.5t-185.5 -253.5t-278.5 -168.5t-341.5 -62.5t-342 62.5t-279 168.5t-185.5 253.5t-68.5 311.5zM449 770q0 -303 139.5 -480t378.5 -177q238 0 378 177.5 t140 479.5q0 320 -139.5 507t-378.5 187t-378.5 -187t-139.5 -507zM709 1700l258 198q88 68 192 68q56 0 86.5 -20.5t30.5 -55.5q0 -47 -38.5 -77.5t-141.5 -55.5l-238 -57h-149z" />
<glyph unicode="&#xd4;" horiz-adv-x="1933" d="M92 776q0 228 115.5 416.5t316.5 296.5t443 108q182 0 344 -63.5t278 -173t184 -261.5t68 -323q0 -164 -68.5 -311.5t-185.5 -253.5t-278.5 -168.5t-341.5 -62.5t-342 62.5t-279 168.5t-185.5 253.5t-68.5 311.5zM449 770q0 -303 139.5 -480t378.5 -177q238 0 378 177.5 t140 479.5q0 320 -139.5 507t-378.5 187t-378.5 -187t-139.5 -507zM592 1700l254 266h237l254 -266h-137l-235 100l-236 -100h-137z" />
<glyph unicode="&#xd5;" horiz-adv-x="1933" d="M92 776q0 228 115.5 416.5t316.5 296.5t443 108q182 0 344 -63.5t278 -173t184 -261.5t68 -323q0 -164 -68.5 -311.5t-185.5 -253.5t-278.5 -168.5t-341.5 -62.5t-342 62.5t-279 168.5t-185.5 253.5t-68.5 311.5zM449 770q0 -303 139.5 -480t378.5 -177q238 0 378 177.5 t140 479.5q0 320 -139.5 507t-378.5 187t-378.5 -187t-139.5 -507zM573 1696q20 120 88.5 197t155.5 77q50 0 178 -49q115 -45 162 -45q39 0 62 19.5t38 66.5h93q-7 -53 -32 -111t-58 -98q-62 -74 -150 -74q-64 0 -174 52q-99 47 -178 47q-35 0 -55 -18t-35 -64h-95z" />
<glyph unicode="&#xd6;" horiz-adv-x="1933" d="M92 776q0 228 115.5 416.5t316.5 296.5t443 108q182 0 344 -63.5t278 -173t184 -261.5t68 -323q0 -164 -68.5 -311.5t-185.5 -253.5t-278.5 -168.5t-341.5 -62.5t-342 62.5t-279 168.5t-185.5 253.5t-68.5 311.5zM449 770q0 -303 139.5 -480t378.5 -177q238 0 378 177.5 t140 479.5q0 320 -139.5 507t-378.5 187t-378.5 -187t-139.5 -507zM608 1849q0 51 35 84t88 33q55 0 91 -33t36 -84q0 -54 -35.5 -87t-91.5 -33q-53 0 -88 33.5t-35 86.5zM1053 1849q0 51 36 84t91 33q52 0 87.5 -33.5t35.5 -83.5q0 -53 -35.5 -86.5t-87.5 -33.5 q-56 0 -91.5 33t-35.5 87z" />
<glyph unicode="&#xd7;" horiz-adv-x="1073" d="M104 338l336 336l-331 332l98 98l332 -332l335 336l95 -94l-336 -336l332 -332l-99 -98l-331 332l-336 -336z" />
<glyph unicode="&#xd8;" horiz-adv-x="1931" d="M92 776q0 228 115.5 416.5t316.5 296.5t443 108q262 0 481 -131l194 234h183l-262 -316q132 -115 205 -271.5t73 -336.5q0 -164 -68.5 -311.5t-185.5 -253.5t-278.5 -168.5t-341.5 -62.5q-256 0 -469 120l-222 -266h-180l287 346q-137 111 -214 265t-77 331zM449 770 q0 -239 88 -403l782 942q-136 155 -352 155q-239 0 -378.5 -187t-139.5 -507zM623 250q134 -137 344 -137q238 0 378 177.5t140 479.5q0 241 -86 418z" />
<glyph unicode="&#xd9;" horiz-adv-x="1802" d="M55 1495v82h736v-82q-87 0 -128 -9.5t-63 -35.5q-28 -32 -37.5 -100.5t-9.5 -229.5v-536q0 -232 100 -344.5t305 -112.5q422 0 422 469v473q0 171 -12.5 252t-46.5 119q-28 29 -74 42t-125 13v82h664v-82q-75 0 -116 -11.5t-64 -39.5q-31 -38 -43.5 -121.5t-12.5 -253.5 v-434q0 -347 -155.5 -501t-507.5 -154q-330 0 -482.5 138.5t-152.5 440.5v561q0 159 -7.5 226.5t-29.5 99.5q-19 28 -53.5 38.5t-106.5 10.5zM659 1890q0 35 30.5 55.5t86.5 20.5q105 0 193 -68l258 -198h-150l-237 57q-103 26 -142 56t-39 77z" />
<glyph unicode="&#xda;" horiz-adv-x="1802" d="M55 1495v82h736v-82q-87 0 -128 -9.5t-63 -35.5q-28 -32 -37.5 -100.5t-9.5 -229.5v-536q0 -232 100 -344.5t305 -112.5q422 0 422 469v473q0 171 -12.5 252t-46.5 119q-28 29 -74 42t-125 13v82h664v-82q-75 0 -116 -11.5t-64 -39.5q-31 -38 -43.5 -121.5t-12.5 -253.5 v-434q0 -347 -155.5 -501t-507.5 -154q-330 0 -482.5 138.5t-152.5 440.5v561q0 159 -7.5 226.5t-29.5 99.5q-19 28 -53.5 38.5t-106.5 10.5zM684 1700l258 198q88 68 193 68q56 0 86 -20.5t30 -55.5q0 -47 -38.5 -77.5t-141.5 -55.5l-237 -57h-150z" />
<glyph unicode="&#xdb;" horiz-adv-x="1802" d="M55 1495v82h736v-82q-87 0 -128 -9.5t-63 -35.5q-28 -32 -37.5 -100.5t-9.5 -229.5v-536q0 -232 100 -344.5t305 -112.5q422 0 422 469v473q0 171 -12.5 252t-46.5 119q-28 29 -74 42t-125 13v82h664v-82q-75 0 -116 -11.5t-64 -39.5q-31 -38 -43.5 -121.5t-12.5 -253.5 v-434q0 -347 -155.5 -501t-507.5 -154q-330 0 -482.5 138.5t-152.5 440.5v561q0 159 -7.5 226.5t-29.5 99.5q-19 28 -53.5 38.5t-106.5 10.5zM584 1700l254 266h237l254 -266h-137l-236 100l-235 -100h-137z" />
<glyph unicode="&#xdc;" horiz-adv-x="1802" d="M55 1495v82h736v-82q-87 0 -128 -9.5t-63 -35.5q-28 -32 -37.5 -100.5t-9.5 -229.5v-536q0 -232 100 -344.5t305 -112.5q422 0 422 469v473q0 171 -12.5 252t-46.5 119q-28 29 -74 42t-125 13v82h664v-82q-75 0 -116 -11.5t-64 -39.5q-31 -38 -43.5 -121.5t-12.5 -253.5 v-434q0 -347 -155.5 -501t-507.5 -154q-330 0 -482.5 138.5t-152.5 440.5v561q0 159 -7.5 226.5t-29.5 99.5q-19 28 -53.5 38.5t-106.5 10.5zM616 1849q0 51 35 84t88 33q55 0 91 -33t36 -84q0 -54 -35.5 -87t-91.5 -33q-53 0 -88 33.5t-35 86.5zM1061 1849q0 51 36 84 t91 33q52 0 87.5 -33.5t35.5 -83.5q0 -53 -35.5 -86.5t-87.5 -33.5q-56 0 -91.5 33t-35.5 87z" />
<glyph unicode="&#xdd;" horiz-adv-x="1556" d="M-29 1495v82h688v-82q-84 0 -119.5 -16t-35.5 -49q0 -31 51 -127l293 -560h8l258 431q68 115 94.5 171.5t26.5 88.5q0 35 -32 48t-118 13v82h514v-82q-47 0 -81 -14t-77 -58t-90 -114.5t-120 -196.5l-299 -512v-209q0 -84 6 -137t18.5 -89t39 -53t60 -23.5t89.5 -6.5v-82 h-729v82q69 0 106.5 9.5t64 41.5t35.5 88.5t9 155.5v188l-424 754q-61 106 -108.5 141t-127.5 35zM516 1700l258 198q88 68 193 68q56 0 86 -20.5t30 -55.5q0 -47 -38.5 -77.5t-141.5 -55.5l-237 -57h-150z" />
<glyph unicode="&#xde;" horiz-adv-x="1503" d="M66 0v84q54 2 87.5 5.5t62 13.5t43.5 24t25.5 41t13.5 59.5t3 83.5v949q0 51 -3 84t-13.5 60.5t-25.5 42.5t-43 25.5t-62.5 14.5t-87.5 6v84h813v-78q-58 0 -97.5 -3t-71 -8.5t-50 -19t-31 -28.5t-18 -43t-7.5 -56t-2 -75v-35h215q295 0 463 -118t168 -312 q0 -115 -37 -199.5t-116.5 -143.5t-208.5 -88.5t-310 -29.5h-174v-39q0 -44 2 -70.5t7.5 -53t18 -40t31 -26t50 -17t71 -7.5t97.5 -3v-84h-813zM602 463h133q189 0 280 80.5t91 257.5q0 151 -76.5 232t-212.5 81h-178q-17 0 -27 -10t-10 -25v-616z" />
<glyph unicode="&#xdf;" horiz-adv-x="1456" d="M33 0v84q65 0 98.5 7t55 34.5t27 69.5t5.5 124v881q0 239 134 369.5t380 130.5q236 0 380 -109t144 -288q0 -138 -81 -228.5t-230 -118.5v-10q120 0 219.5 -64.5t156 -177t56.5 -247.5q0 -206 -130 -341.5t-328 -135.5q-117 0 -190 49t-73 127q0 43 26.5 69.5t70.5 26.5 q32 0 54 -16.5t34.5 -39.5t23 -46t27 -39.5t39.5 -16.5q60 0 98.5 95.5t38.5 242.5q0 215 -97 333t-272 118v125q128 0 188 69.5t60 218.5q0 143 -53.5 212t-165.5 69q-120 0 -172.5 -85.5t-52.5 -279.5v-876q0 -153 19 -202.5t79 -49.5v-84h-569z" />
<glyph unicode="&#xe0;" horiz-adv-x="1175" d="M70 244q0 92 82 171t264 152l289 125v86q0 118 -42.5 173t-130.5 55q-57 0 -88.5 -31t-58.5 -107q-40 -108 -145 -108q-57 0 -88 35t-31 98q0 99 110.5 156t321.5 57q230 0 328 -83t98 -278v-448q0 -174 70 -174q37 0 71 27l31 -60q-28 -51 -89 -80.5t-136 -29.5 q-93 0 -143 57t-50 162h-10q-58 -105 -153.5 -161t-215.5 -56q-127 0 -205.5 72.5t-78.5 189.5zM256 1573q0 42 31 67t82 25q79 0 174 -88l260 -244h-131l-275 123q-73 33 -107 58.5t-34 58.5zM358 301q0 -59 32.5 -94t82.5 -35q99 0 165.5 63t66.5 154v195 q-179 -82 -263 -148t-84 -135z" />
<glyph unicode="&#xe1;" horiz-adv-x="1175" d="M70 244q0 92 82 171t264 152l289 125v86q0 118 -42.5 173t-130.5 55q-57 0 -88.5 -31t-58.5 -107q-40 -108 -145 -108q-57 0 -88 35t-31 98q0 99 110.5 156t321.5 57q230 0 328 -83t98 -278v-448q0 -174 70 -174q37 0 71 27l31 -60q-28 -51 -89 -80.5t-136 -29.5 q-93 0 -143 57t-50 162h-10q-58 -105 -153.5 -161t-215.5 -56q-127 0 -205.5 72.5t-78.5 189.5zM311 1333l260 244q95 88 174 88q51 0 82 -25t31 -67q0 -33 -35 -59.5t-106 -57.5l-285 -123h-121zM358 301q0 -59 32.5 -94t82.5 -35q99 0 165.5 63t66.5 154v195 q-179 -82 -263 -148t-84 -135z" />
<glyph unicode="&#xe2;" horiz-adv-x="1175" d="M70 244q0 92 82 171t264 152l289 125v86q0 118 -42.5 173t-130.5 55q-57 0 -88.5 -31t-58.5 -107q-40 -108 -145 -108q-57 0 -88 35t-31 98q0 99 110.5 156t321.5 57q230 0 328 -83t98 -278v-448q0 -174 70 -174q37 0 71 27l31 -60q-28 -51 -89 -80.5t-136 -29.5 q-93 0 -143 57t-50 162h-10q-58 -105 -153.5 -161t-215.5 -56q-127 0 -205.5 72.5t-78.5 189.5zM207 1333l246 305h213l245 -305h-106l-246 140l-246 -140h-106zM358 301q0 -59 32.5 -94t82.5 -35q99 0 165.5 63t66.5 154v195q-179 -82 -263 -148t-84 -135z" />
<glyph unicode="&#xe3;" horiz-adv-x="1175" d="M70 244q0 92 82 171t264 152l289 125v86q0 118 -42.5 173t-130.5 55q-57 0 -88.5 -31t-58.5 -107q-40 -108 -145 -108q-57 0 -88 35t-31 98q0 99 110.5 156t321.5 57q230 0 328 -83t98 -278v-448q0 -174 70 -174q37 0 71 27l31 -60q-28 -51 -89 -80.5t-136 -29.5 q-93 0 -143 57t-50 162h-10q-58 -105 -153.5 -161t-215.5 -56q-127 0 -205.5 72.5t-78.5 189.5zM180 1352q20 120 88.5 197t155.5 77q50 0 178 -49q115 -45 162 -45q39 0 62 19.5t38 66.5h92q-7 -53 -32 -111t-58 -98q-62 -74 -149 -74q-66 0 -174 51q-101 48 -178 48 q-35 0 -55.5 -18t-35.5 -64h-94zM358 301q0 -59 32.5 -94t82.5 -35q99 0 165.5 63t66.5 154v195q-179 -82 -263 -148t-84 -135z" />
<glyph unicode="&#xe4;" horiz-adv-x="1175" d="M70 244q0 92 82 171t264 152l289 125v86q0 118 -42.5 173t-130.5 55q-57 0 -88.5 -31t-58.5 -107q-40 -108 -145 -108q-57 0 -88 35t-31 98q0 99 110.5 156t321.5 57q230 0 328 -83t98 -278v-448q0 -174 70 -174q37 0 71 27l31 -60q-28 -51 -89 -80.5t-136 -29.5 q-93 0 -143 57t-50 162h-10q-58 -105 -153.5 -161t-215.5 -56q-127 0 -205.5 72.5t-78.5 189.5zM225 1516q0 57 37.5 95t93.5 38q57 0 95 -38t38 -95q0 -56 -38 -94t-95 -38q-55 0 -93 38t-38 94zM358 301q0 -59 32.5 -94t82.5 -35q99 0 165.5 63t66.5 154v195 q-179 -82 -263 -148t-84 -135zM627 1516q0 57 37.5 95t93.5 38q57 0 95 -38t38 -95q0 -56 -38 -94t-95 -38q-55 0 -93 38t-38 94z" />
<glyph unicode="&#xe5;" horiz-adv-x="1175" d="M70 244q0 92 82 171t264 152l289 125v86q0 118 -42.5 173t-130.5 55q-57 0 -88.5 -31t-58.5 -107q-40 -108 -145 -108q-57 0 -88 35t-31 98q0 99 110.5 156t321.5 57q230 0 328 -83t98 -278v-448q0 -174 70 -174q37 0 71 27l31 -60q-28 -51 -89 -80.5t-136 -29.5 q-93 0 -143 57t-50 162h-10q-58 -105 -153.5 -161t-215.5 -56q-127 0 -205.5 72.5t-78.5 189.5zM358 301q0 -59 32.5 -94t82.5 -35q99 0 165.5 63t66.5 154v195q-179 -82 -263 -148t-84 -135zM367 1520q0 78 52 129t132 51q82 0 135 -51t53 -129q0 -75 -53.5 -126 t-134.5 -51q-79 0 -131.5 51t-52.5 126zM467 1520q0 -34 24.5 -57t59.5 -23q34 0 57 23t23 57q0 32 -23 53.5t-57 21.5q-35 0 -59.5 -21.5t-24.5 -53.5z" />
<glyph unicode="&#xe6;" horiz-adv-x="1820" d="M70 231q0 105 76 180.5t260 153.5l299 127v86q0 117 -41 172.5t-127 55.5q-58 0 -87 -26t-63 -106q-25 -61 -57.5 -87.5t-83.5 -26.5q-59 0 -92 33.5t-33 93.5q0 107 106.5 163t309.5 56q283 0 381 -119q66 57 163 88t209 31q218 0 337.5 -119.5t119.5 -337.5 q0 -25 -9.5 -30t-56.5 -5h-673q-9 -21 -9 -82q0 -204 85.5 -311.5t246.5 -107.5q88 0 166 34t176 115l58 -72q-104 -110 -216.5 -160t-257.5 -50q-349 0 -497 260q-57 -123 -162.5 -190.5t-239.5 -67.5q-135 0 -211.5 66t-76.5 183zM358 293q0 -55 37 -88t99 -33 q89 0 150 66.5t61 164.5v183q-192 -92 -269.5 -157.5t-77.5 -135.5zM1022 729h313q85 0 106 9.5t21 49.5q0 89 -51.5 144t-134.5 55q-89 0 -157 -69t-97 -189z" />
<glyph unicode="&#xe7;" horiz-adv-x="1155" d="M80 539q0 253 163.5 410t426.5 157q184 0 306 -69.5t122 -172.5q0 -60 -34 -94.5t-91 -34.5q-47 0 -83 24.5t-71 80.5q-61 96 -91 121.5t-83 25.5q-118 0 -184 -111t-66 -309q0 -213 79 -327.5t226 -114.5q170 0 328 123l53 -78q-74 -84 -187 -130.5t-243 -49.5l-49 -117 q128 0 202.5 -51t74.5 -139q0 -95 -81.5 -155t-209.5 -60q-117 0 -193 49.5t-76 126.5q0 39 20 61.5t54 22.5q29 0 47 -16.5t37 -59.5q20 -49 40 -67.5t54 -18.5q41 0 66 25.5t25 66.5q0 54 -40.5 82.5t-115.5 28.5q-35 0 -80 -5l-4 7l100 229q-202 32 -322 177.5 t-120 361.5z" />
<glyph unicode="&#xe8;" horiz-adv-x="1198" d="M78 528q0 167 75 299t209 205.5t304 73.5q217 0 337.5 -117.5t120.5 -326.5q0 -33 -10 -40.5t-57 -7.5h-660q-8 -19 -8 -67q0 -200 87.5 -317t236.5 -117q171 0 336 149l57 -72q-187 -210 -465 -210q-252 0 -407.5 151.5t-155.5 396.5zM248 1573q0 43 30.5 67.5 t81.5 24.5q80 0 175 -88l260 -244h-131l-275 123q-73 33 -107 58.5t-34 58.5zM412 729h297q84 0 106.5 9t22.5 44q0 89 -51.5 147t-129.5 58q-87 0 -156 -72.5t-89 -185.5z" />
<glyph unicode="&#xe9;" horiz-adv-x="1198" d="M78 528q0 167 75 299t209 205.5t304 73.5q217 0 337.5 -117.5t120.5 -326.5q0 -33 -10 -40.5t-57 -7.5h-660q-8 -19 -8 -67q0 -200 87.5 -317t236.5 -117q171 0 336 149l57 -72q-187 -210 -465 -210q-252 0 -407.5 151.5t-155.5 396.5zM412 729h297q84 0 106.5 9t22.5 44 q0 89 -51.5 147t-129.5 58q-87 0 -156 -72.5t-89 -185.5zM475 1333l260 244q95 88 174 88q51 0 82 -25t31 -67q0 -33 -35 -59.5t-106 -57.5l-285 -123h-121z" />
<glyph unicode="&#xea;" horiz-adv-x="1198" d="M78 528q0 167 75 299t209 205.5t304 73.5q217 0 337.5 -117.5t120.5 -326.5q0 -33 -10 -40.5t-57 -7.5h-660q-8 -19 -8 -67q0 -200 87.5 -317t236.5 -117q171 0 336 149l57 -72q-187 -210 -465 -210q-252 0 -407.5 151.5t-155.5 396.5zM293 1333l246 305h213l245 -305 h-106l-246 140l-246 -140h-106zM412 729h297q84 0 106.5 9t22.5 44q0 89 -51.5 147t-129.5 58q-87 0 -156 -72.5t-89 -185.5z" />
<glyph unicode="&#xeb;" horiz-adv-x="1198" d="M78 528q0 167 75 299t209 205.5t304 73.5q217 0 337.5 -117.5t120.5 -326.5q0 -33 -10 -40.5t-57 -7.5h-660q-8 -19 -8 -67q0 -200 87.5 -317t236.5 -117q171 0 336 149l57 -72q-187 -210 -465 -210q-252 0 -407.5 151.5t-155.5 396.5zM342 1516q0 57 37.5 95t93.5 38 q57 0 95 -38t38 -95q0 -56 -38 -94t-95 -38q-55 0 -93 38t-38 94zM412 729h297q84 0 106.5 9t22.5 44q0 89 -51.5 147t-129.5 58q-87 0 -156 -72.5t-89 -185.5zM743 1516q0 57 37.5 95t93.5 38q57 0 95.5 -38t38.5 -95q0 -56 -38.5 -94t-95.5 -38q-55 0 -93 38t-38 94z" />
<glyph unicode="&#xec;" horiz-adv-x="739" d="M27 1573q0 43 30.5 67.5t81.5 24.5q79 0 174 -88l260 -244h-131l-274 123q-73 33 -107 58.5t-34 58.5zM51 958v70l475 78v-770q0 -58 2 -94t9.5 -66.5t18.5 -46t32.5 -27t48 -15t68.5 -5.5v-82h-646v82q60 3 94 13t55 38t27.5 70.5t6.5 118.5v251q0 232 -15 301 q-10 51 -46 67.5t-130 16.5z" />
<glyph unicode="&#xed;" horiz-adv-x="739" d="M51 958v70l475 78v-770q0 -58 2 -94t9.5 -66.5t18.5 -46t32.5 -27t48 -15t68.5 -5.5v-82h-646v82q60 3 94 13t55 38t27.5 70.5t6.5 118.5v251q0 232 -15 301q-10 51 -46 67.5t-130 16.5zM178 1333l260 244q95 88 174 88q51 0 82 -25t31 -67q0 -33 -35 -59.5t-106 -57.5 l-285 -123h-121z" />
<glyph unicode="&#xee;" horiz-adv-x="739" d="M31 1333l245 305h213l246 -305h-106l-246 140l-246 -140h-106zM51 958v70l475 78v-770q0 -58 2 -94t9.5 -66.5t18.5 -46t32.5 -27t48 -15t68.5 -5.5v-82h-646v82q60 3 94 13t55 38t27.5 70.5t6.5 118.5v251q0 232 -15 301q-10 51 -46 67.5t-130 16.5z" />
<glyph unicode="&#xef;" horiz-adv-x="739" d="M51 958v70l475 78v-770q0 -58 2 -94t9.5 -66.5t18.5 -46t32.5 -27t48 -15t68.5 -5.5v-82h-646v82q60 3 94 13t55 38t27.5 70.5t6.5 118.5v251q0 232 -15 301q-10 51 -46 67.5t-130 16.5zM78 1516q0 57 37.5 95t93.5 38q57 0 95 -38t38 -95q0 -56 -38 -94t-95 -38 q-55 0 -93 38t-38 94zM479 1516q0 57 37.5 95t93.5 38q57 0 95 -38t38 -95q0 -56 -38 -94t-95 -38q-55 0 -93 38t-38 94z" />
<glyph unicode="&#xf0;" horiz-adv-x="1353" d="M80 500q0 152 72 278t200 199.5t285 73.5q116 0 201 -53t129 -154l6 4q-84 308 -266 467l-287 -156l-49 88l254 135q-43 34 -102 58t-187 67l41 90q252 -70 373 -139l278 154l62 -88l-238 -131q202 -124 309 -325t107 -437q0 -284 -174 -467.5t-439 -183.5 q-160 0 -291.5 67t-207.5 186.5t-76 266.5zM410 500q0 -191 67.5 -299.5t179.5 -108.5q125 0 200 110t75 298q0 199 -74 314.5t-199 115.5q-114 0 -181.5 -114.5t-67.5 -315.5z" />
<glyph unicode="&#xf1;" horiz-adv-x="1488" d="M51 958v70l395 78l27 -180h8q68 86 162 133t201 47q130 0 211.5 -36t144.5 -120q88 -118 88 -327v-289q0 -60 1.5 -95t9 -65.5t17 -45t31.5 -25.5t47 -14.5t68 -6.5v-82h-641v82q44 2 70.5 6t49 14.5t33 24.5t18.5 42.5t10 62t2 87.5v279q0 210 -52.5 292.5t-185.5 82.5 q-124 0 -195 -139q-45 -88 -45 -218v-282q0 -45 1 -74t4.5 -57t8 -43.5t15 -30.5t22 -21.5t32 -12.5t41.5 -8.5t55 -4.5v-82h-646v82q65 4 97 11.5t54 34.5t27 68.5t5 122.5v256q0 231 -15 297q-12 53 -46.5 69.5t-129.5 16.5zM356 1352q20 120 88.5 197t155.5 77 q50 0 178 -49q115 -45 162 -45q39 0 62 19.5t38 66.5h93q-7 -53 -32.5 -111t-58.5 -98q-62 -74 -149 -74q-66 0 -174 51q-101 48 -178 48q-35 0 -55 -18t-35 -64h-95z" />
<glyph unicode="&#xf2;" horiz-adv-x="1351" d="M76 551q0 158 81.5 286t217.5 198.5t297 70.5q162 0 300 -70.5t221 -199t83 -285.5q0 -162 -83 -294t-221 -204.5t-300 -72.5q-161 0 -297 72t-217.5 204t-81.5 295zM397 549q0 -203 74.5 -324t200.5 -121q129 0 205.5 121.5t76.5 323.5q0 196 -77.5 317t-204.5 121 q-124 0 -199.5 -120.5t-75.5 -317.5zM414 1573q0 43 30.5 67.5t81.5 24.5q79 0 174 -88l261 -244h-132l-274 123q-73 33 -107 58.5t-34 58.5z" />
<glyph unicode="&#xf3;" horiz-adv-x="1351" d="M76 551q0 158 81.5 286t217.5 198.5t297 70.5q162 0 300 -70.5t221 -199t83 -285.5q0 -162 -83 -294t-221 -204.5t-300 -72.5q-161 0 -297 72t-217.5 204t-81.5 295zM397 549q0 -203 74.5 -324t200.5 -121q129 0 205.5 121.5t76.5 323.5q0 196 -77.5 317t-204.5 121 q-124 0 -199.5 -120.5t-75.5 -317.5zM469 1333l260 244q95 88 174 88q51 0 82 -25t31 -67q0 -33 -35 -59.5t-107 -57.5l-284 -123h-121z" />
<glyph unicode="&#xf4;" horiz-adv-x="1351" d="M76 551q0 158 81.5 286t217.5 198.5t297 70.5q162 0 300 -70.5t221 -199t83 -285.5q0 -162 -83 -294t-221 -204.5t-300 -72.5q-161 0 -297 72t-217.5 204t-81.5 295zM319 1333l246 305h213l246 -305h-106l-246 140l-246 -140h-107zM397 549q0 -203 74.5 -324t200.5 -121 q129 0 205.5 121.5t76.5 323.5q0 196 -77.5 317t-204.5 121q-124 0 -199.5 -120.5t-75.5 -317.5z" />
<glyph unicode="&#xf5;" horiz-adv-x="1351" d="M76 551q0 158 81.5 286t217.5 198.5t297 70.5q162 0 300 -70.5t221 -199t83 -285.5q0 -162 -83 -294t-221 -204.5t-300 -72.5q-161 0 -297 72t-217.5 204t-81.5 295zM268 1352q20 120 88.5 197t155.5 77q50 0 178 -49q115 -45 162 -45q39 0 62 19.5t38 66.5h92 q-7 -53 -32 -111t-58 -98q-62 -74 -149 -74q-66 0 -174 51q-101 48 -178 48q-35 0 -55.5 -18t-35.5 -64h-94zM397 549q0 -203 74.5 -324t200.5 -121q129 0 205.5 121.5t76.5 323.5q0 196 -77.5 317t-204.5 121q-124 0 -199.5 -120.5t-75.5 -317.5z" />
<glyph unicode="&#xf6;" horiz-adv-x="1351" d="M76 551q0 158 81.5 286t217.5 198.5t297 70.5q162 0 300 -70.5t221 -199t83 -285.5q0 -162 -83 -294t-221 -204.5t-300 -72.5q-161 0 -297 72t-217.5 204t-81.5 295zM367 1516q0 57 37.5 95t93.5 38q57 0 95 -38t38 -95q0 -56 -38 -94t-95 -38q-55 0 -93 38t-38 94z M397 549q0 -203 74.5 -324t200.5 -121q129 0 205.5 121.5t76.5 323.5q0 196 -77.5 317t-204.5 121q-124 0 -199.5 -120.5t-75.5 -317.5zM768 1516q0 57 37.5 95t93.5 38q57 0 95 -38t38 -95q0 -56 -38 -94t-95 -38q-55 0 -93 38t-38 94z" />
<glyph unicode="&#xf7;" horiz-adv-x="1198" d="M96 627v131h1008v-131h-1008zM451 309q0 66 44.5 112t108.5 46q67 0 112.5 -46t45.5 -112q0 -63 -45.5 -107t-112.5 -44q-64 0 -108.5 44t-44.5 107zM451 1067q0 66 44.5 112t108.5 46q67 0 112.5 -46t45.5 -112q0 -63 -45.5 -107.5t-112.5 -44.5q-64 0 -108.5 44.5 t-44.5 107.5z" />
<glyph unicode="&#xf8;" horiz-adv-x="1347" d="M47 -125l213 256q-88 78 -137 186t-49 234q0 158 81.5 286t217.5 198.5t297 70.5q175 0 325 -88l162 194h166l-223 -268q82 -76 128 -176.5t46 -216.5q0 -162 -83 -294t-221 -204.5t-300 -72.5q-167 0 -308 77l-151 -182h-164zM395 549q0 -121 29 -219l448 538 q-77 119 -202 119q-124 0 -199.5 -120.5t-75.5 -317.5zM483 203q74 -99 187 -99q129 0 205.5 121.5t76.5 323.5q0 105 -24 188z" />
<glyph unicode="&#xf9;" horiz-adv-x="1452" d="M27 1004v81h458v-579q0 -206 51.5 -299.5t163.5 -93.5q123 0 187 110q65 107 65 314v213q0 61 -1 95t-8.5 65t-17 44.5t-32.5 25.5t-48 16t-71 8v81h463v-620q0 -238 14 -301q11 -53 42 -67.5t132 -14.5v-80l-407 -25l-23 183h-8q-52 -85 -148.5 -132.5t-215.5 -47.5 q-219 0 -334 155q-88 119 -88 338v277q0 47 -0.5 75t-4 56.5t-7 43t-14.5 29.5t-21 21t-31 13t-41 9.5t-55 6.5zM352 1573q0 42 31 67t82 25q79 0 174 -88l260 -244h-131l-274 123q-74 33 -108 58.5t-34 58.5z" />
<glyph unicode="&#xfa;" horiz-adv-x="1452" d="M27 1004v81h458v-579q0 -206 51.5 -299.5t163.5 -93.5q123 0 187 110q65 107 65 314v213q0 61 -1 95t-8.5 65t-17 44.5t-32.5 25.5t-48 16t-71 8v81h463v-620q0 -238 14 -301q11 -53 42 -67.5t132 -14.5v-80l-407 -25l-23 183h-8q-52 -85 -148.5 -132.5t-215.5 -47.5 q-219 0 -334 155q-88 119 -88 338v277q0 47 -0.5 75t-4 56.5t-7 43t-14.5 29.5t-21 21t-31 13t-41 9.5t-55 6.5zM449 1333l260 244q95 88 174 88q51 0 81.5 -24.5t30.5 -67.5q0 -33 -35 -59.5t-106 -57.5l-285 -123h-120z" />
<glyph unicode="&#xfb;" horiz-adv-x="1452" d="M27 1004v81h458v-579q0 -206 51.5 -299.5t163.5 -93.5q123 0 187 110q65 107 65 314v213q0 61 -1 95t-8.5 65t-17 44.5t-32.5 25.5t-48 16t-71 8v81h463v-620q0 -238 14 -301q11 -53 42 -67.5t132 -14.5v-80l-407 -25l-23 183h-8q-52 -85 -148.5 -132.5t-215.5 -47.5 q-219 0 -334 155q-88 119 -88 338v277q0 47 -0.5 75t-4 56.5t-7 43t-14.5 29.5t-21 21t-31 13t-41 9.5t-55 6.5zM301 1333l246 305h213l246 -305h-107l-246 140l-245 -140h-107z" />
<glyph unicode="&#xfc;" horiz-adv-x="1452" d="M27 1004v81h458v-579q0 -206 51.5 -299.5t163.5 -93.5q123 0 187 110q65 107 65 314v213q0 61 -1 95t-8.5 65t-17 44.5t-32.5 25.5t-48 16t-71 8v81h463v-620q0 -238 14 -301q11 -53 42 -67.5t132 -14.5v-80l-407 -25l-23 183h-8q-52 -85 -148.5 -132.5t-215.5 -47.5 q-219 0 -334 155q-88 119 -88 338v277q0 47 -0.5 75t-4 56.5t-7 43t-14.5 29.5t-21 21t-31 13t-41 9.5t-55 6.5zM348 1516q0 57 37.5 95t93.5 38q57 0 95 -38t38 -95q0 -56 -38 -94t-95 -38q-55 0 -93 38t-38 94zM750 1516q0 57 37.5 95t93.5 38q57 0 95 -38t38 -95 q0 -56 -38 -94t-95 -38q-55 0 -93 38t-38 94z" />
<glyph unicode="&#xfd;" horiz-adv-x="1323" d="M16 1004v81h621v-81q-79 0 -111 -16t-32 -56q0 -26 18 -82l209 -598h8l176 399q56 129 73 178t17 84q0 54 -30 72.5t-119 18.5v81h493v-81q-34 0 -57 -7.5t-46 -25t-49 -59t-55 -97.5t-75 -153l-469 -984q-43 -90 -131 -150t-178 -60q-68 0 -109 32.5t-41 87.5 q0 104 152 115q182 15 235 115l55 106l-362 897q-47 118 -80 149t-113 34zM553 1333l260 244q95 88 174 88q51 0 82 -25t31 -67q0 -33 -35 -59.5t-107 -57.5l-284 -123h-121z" />
<glyph unicode="&#xfe;" horiz-adv-x="1380" d="M-27 -440q54 2 86.5 9t57 21t36 42.5t16.5 67t5 101.5v1416q0 203 -27 264q-12 28 -44.5 40.5t-125.5 24.5v72l480 82v-760h8q111 166 323 166q218 0 366.5 -160.5t148.5 -396.5q0 -159 -71.5 -290t-196.5 -206.5t-275 -75.5q-183 0 -295 138v-299q0 -57 3 -94t13.5 -67 t26 -46t45.5 -27.5t65.5 -15.5t92.5 -6v-72h-738v72zM461 428q0 -148 75 -240t195 -92q128 0 195 113.5t67 329.5q0 438 -266 438q-75 0 -127 -36t-92 -116q-47 -100 -47 -215v-182z" />
<glyph unicode="&#xff;" horiz-adv-x="1323" d="M16 1004v81h621v-81q-79 0 -111 -16t-32 -56q0 -26 18 -82l209 -598h8l176 399q56 129 73 178t17 84q0 54 -30 72.5t-119 18.5v81h493v-81q-34 0 -57 -7.5t-46 -25t-49 -59t-55 -97.5t-75 -153l-469 -984q-43 -90 -131 -150t-178 -60q-68 0 -109 32.5t-41 87.5 q0 104 152 115q182 15 235 115l55 106l-362 897q-47 118 -80 149t-113 34zM451 1516q0 57 37.5 95t93.5 38q57 0 95 -38t38 -95q0 -56 -38 -94t-95 -38q-55 0 -93 38t-38 94zM852 1516q0 57 37.5 95t93.5 38q57 0 95 -38t38 -95q0 -56 -38 -94t-95 -38q-55 0 -93 38t-38 94z " />
<glyph unicode="&#x152;" horiz-adv-x="2418" d="M92 776q0 222 118 406t323.5 289.5t453.5 105.5h1258l18 -401h-86q-18 111 -62 173t-130 90.5t-234 28.5h-272q-37 0 -37 -34v-568q99 0 163 6.5t113 22.5t76.5 46.5t43 72.5t22.5 108h84v-600h-84q-13 82 -34 129t-69 78.5t-120.5 42.5t-194.5 12v-438q0 -133 76.5 -183 t279.5 -50q100 0 171 12.5t122 37t86 69t57 100t41 137.5h82l-43 -469h-1335q-183 0 -348 61t-283 164.5t-187 247.5t-69 303zM449 770q0 -294 143.5 -465.5t394.5 -171.5q85 0 119.5 39.5t34.5 138.5v955q0 100 -35 139t-119 39q-252 0 -395 -179t-143 -495z" />
<glyph unicode="&#x153;" horiz-adv-x="2156" d="M76 551q0 158 81.5 286t217.5 198.5t297 70.5q144 0 269.5 -57.5t211.5 -159.5q79 103 200.5 160t270.5 57q217 0 338 -117.5t121 -326.5q0 -33 -10.5 -40.5t-57.5 -7.5h-659q-8 -19 -8 -67q0 -200 87 -317t236 -117q171 0 336 149l57 -72q-187 -210 -465 -210 q-148 0 -266 54.5t-192 153.5q-83 -98 -206.5 -153t-262.5 -55q-161 0 -297 72t-217.5 204t-81.5 295zM397 549q0 -203 74.5 -324t200.5 -121q129 0 205.5 121.5t76.5 323.5q0 196 -77.5 317t-204.5 121q-124 0 -199.5 -120.5t-75.5 -317.5zM1370 729h297q84 0 106.5 9 t22.5 44q0 89 -51 147t-129 58q-88 0 -157 -72.5t-89 -185.5z" />
<glyph unicode="&#x178;" horiz-adv-x="1556" d="M-29 1495v82h688v-82q-84 0 -119.5 -16t-35.5 -49q0 -31 51 -127l293 -560h8l258 431q68 115 94.5 171.5t26.5 88.5q0 35 -32 48t-118 13v82h514v-82q-47 0 -81 -14t-77 -58t-90 -114.5t-120 -196.5l-299 -512v-209q0 -84 6 -137t18.5 -89t39 -53t60 -23.5t89.5 -6.5v-82 h-729v82q69 0 106.5 9.5t64 41.5t35.5 88.5t9 155.5v188l-424 754q-61 106 -108.5 141t-127.5 35zM514 1849q0 51 35 84t88 33q55 0 91 -33t36 -84q0 -54 -35.5 -87t-91.5 -33q-53 0 -88 33.5t-35 86.5zM958 1849q0 51 36 84t91 33q52 0 87.5 -33.5t35.5 -83.5 q0 -53 -35.5 -86.5t-87.5 -33.5q-56 0 -91.5 33t-35.5 87z" />
<glyph unicode="&#x2c6;" horiz-adv-x="790" d="M43 1333l246 305h213l246 -305h-107l-246 140l-245 -140h-107z" />
<glyph unicode="&#x2dc;" horiz-adv-x="821" d="M23 1352q20 121 88 197.5t155 76.5q50 0 178 -49q115 -45 162 -45q39 0 62.5 19.5t38.5 66.5h92q-7 -53 -32 -111t-58 -98q-62 -74 -150 -74q-66 0 -174 51q-101 48 -178 48q-35 0 -55 -18t-35 -64h-94z" />
<glyph unicode="&#x2000;" horiz-adv-x="985" />
<glyph unicode="&#x2001;" horiz-adv-x="1970" />
<glyph unicode="&#x2002;" horiz-adv-x="985" />
<glyph unicode="&#x2003;" horiz-adv-x="1970" />
<glyph unicode="&#x2004;" horiz-adv-x="656" />
<glyph unicode="&#x2005;" horiz-adv-x="492" />
<glyph unicode="&#x2006;" horiz-adv-x="328" />
<glyph unicode="&#x2007;" horiz-adv-x="328" />
<glyph unicode="&#x2008;" horiz-adv-x="246" />
<glyph unicode="&#x2009;" horiz-adv-x="394" />
<glyph unicode="&#x200a;" horiz-adv-x="109" />
<glyph unicode="&#x2010;" horiz-adv-x="935" d="M135 498v190h666v-190h-666z" />
<glyph unicode="&#x2011;" horiz-adv-x="935" d="M135 498v190h666v-190h-666z" />
<glyph unicode="&#x2012;" horiz-adv-x="935" d="M135 498v190h666v-190h-666z" />
<glyph unicode="&#x2013;" horiz-adv-x="1495" d="M135 498v190h1225v-190h-1225z" />
<glyph unicode="&#x2014;" horiz-adv-x="2330" d="M135 498v190h2060v-190h-2060z" />
<glyph unicode="&#x2018;" horiz-adv-x="505" d="M90 1298q0 214 250 402l59 -86q-153 -119 -153 -225q15 6 45 6q47 0 78.5 -37.5t31.5 -93.5q0 -68 -45 -113t-112 -45q-70 0 -112 52t-42 140z" />
<glyph unicode="&#x2019;" horiz-adv-x="495" d="M111 1542q0 68 45 113t112 45q70 0 112 -52.5t42 -140.5q0 -213 -250 -401l-59 86q153 119 153 225q-15 -6 -45 -6q-47 0 -78.5 37.5t-31.5 93.5z" />
<glyph unicode="&#x201a;" horiz-adv-x="534" d="M113 59q0 68 45 113t112 45q70 0 112 -52t42 -140q0 -105 -63.5 -207.5t-186.5 -194.5l-59 86q153 119 153 225q-15 -6 -45 -6q-47 0 -78.5 37.5t-31.5 93.5z" />
<glyph unicode="&#x201c;" horiz-adv-x="927" d="M90 1298q0 214 250 402l59 -86q-153 -119 -153 -225q15 6 45 6q47 0 78.5 -37.5t31.5 -93.5q0 -68 -45 -113t-112 -45q-70 0 -112 52t-42 140zM512 1298q0 214 250 402l59 -86q-153 -119 -153 -225q15 6 45 6q47 0 78.5 -37.5t31.5 -93.5q0 -68 -45 -113t-112 -45 q-70 0 -112 52t-42 140z" />
<glyph unicode="&#x201d;" horiz-adv-x="917" d="M111 1542q0 68 45 113t112 45q70 0 112 -52.5t42 -140.5q0 -213 -250 -401l-59 86q153 119 153 225q-15 -6 -45 -6q-47 0 -78.5 37.5t-31.5 93.5zM532 1542q0 68 45 113t113 45q70 0 112 -52.5t42 -140.5q0 -213 -250 -401l-59 86q153 119 153 225q-15 -6 -45 -6 q-47 0 -79 37.5t-32 93.5z" />
<glyph unicode="&#x201e;" horiz-adv-x="956" d="M113 59q0 68 45 113t112 45q70 0 112 -52t42 -140q0 -105 -63.5 -207.5t-186.5 -194.5l-59 86q153 119 153 225q-15 -6 -45 -6q-47 0 -78.5 37.5t-31.5 93.5zM535 59q0 68 45 113t112 45q70 0 112 -52t42 -140q0 -105 -63.5 -207.5t-186.5 -194.5l-59 86q153 119 153 225 q-15 -6 -45 -6q-47 0 -78.5 37.5t-31.5 93.5z" />
<glyph unicode="&#x2022;" horiz-adv-x="954" d="M145 756q0 130 99.5 225.5t236.5 95.5q132 0 230 -95.5t98 -225.5q0 -131 -99.5 -227.5t-238.5 -96.5q-130 0 -228 97t-98 227z" />
<glyph unicode="&#x2026;" horiz-adv-x="1544" d="M111 131q0 66 44.5 112t108.5 46q67 0 112.5 -46t45.5 -112q0 -63 -45.5 -107t-112.5 -44q-64 0 -108.5 44t-44.5 107zM616 131q0 66 45 112t109 46q67 0 112.5 -46t45.5 -112q0 -63 -45.5 -107t-112.5 -44q-64 0 -109 44t-45 107zM1122 131q0 66 45 112t109 46 q67 0 112.5 -46t45.5 -112q0 -63 -45.5 -107t-112.5 -44q-64 0 -109 44t-45 107z" />
<glyph unicode="&#x202f;" horiz-adv-x="394" />
<glyph unicode="&#x2039;" horiz-adv-x="681" d="M94 537l402 378l65 -47l-188 -331l184 -330l-70 -49z" />
<glyph unicode="&#x203a;" horiz-adv-x="681" d="M121 868l65 47l402 -378l-393 -379l-70 49l184 330z" />
<glyph unicode="&#x205f;" horiz-adv-x="492" />
<glyph unicode="&#x20ac;" horiz-adv-x="1560" d="M76 881v123h192q58 284 238.5 438.5t443.5 154.5q101 0 167 -24.5t155 -99.5l37 104h80v-483h-113q-35 187 -116.5 286t-201.5 99q-141 0 -228.5 -119.5t-115.5 -355.5h451v-123h-457q-6 -43 -6 -88q2 -20 2 -60h461v-123h-455q0 -228 92.5 -370t239.5 -142t247.5 125.5 t119.5 329.5h112v-553h-94l-24 141q-145 -161 -377 -161q-256 0 -434.5 169t-229.5 461h-184v123h174q-2 20 -2 62q0 43 6 86h-180z" />
<glyph unicode="&#x2122;" horiz-adv-x="1855" d="M125 1411v166h649v-166h-45q-6 66 -28 88.5t-87 22.5q-60 0 -78 -5.5t-18 -21.5v-397q0 -57 18.5 -77.5t81.5 -23.5v-51h-333v51q63 3 82.5 24.5t19.5 76.5v397q0 16 -17 21.5t-69 5.5q-33 0 -52.5 -3t-39.5 -13.5t-30 -33.5t-11 -61h-43zM825 946v51q62 2 78.5 22.5 t16.5 96.5v291q0 69 -17.5 94t-68.5 25v51h270l174 -432l186 432h248v-51q-54 0 -70 -24t-16 -101v-279q0 -81 16 -102t78 -23v-51h-317v51q62 2 78 22.5t16 96.5v359h-8l-238 -537h-26l-224 537h-8v-353q0 -81 16 -102t78 -23v-51h-262z" />
<glyph unicode="&#x25fc;" horiz-adv-x="1085" d="M0 0v1085h1085v-1085h-1085z" />
</font>
</defs>
</svg>
